<?xml version="1.0" encoding="utf-8"?>
<!DOCTYPE svg PUBLIC "-//W3C//DTD SVG 1.1//EN" "http://www.w3.org/Graphics/SVG/1.1/DTD/svg11.dtd">
<svg version="1.1" id="图形" xmlns="http://www.w3.org/2000/svg" xmlns:xlink="http://www.w3.org/1999/xlink" x="0px" y="0px" width="1108px" height="1024px" viewBox="0 0 1108 1024" enable-background="new 0 0 1108 1024" xml:space="preserve">
  <path fill="#ffffff" d="M595.50464 299.352832c3.468288-21.331968 3.468288-295.671808 0-319.198208l59.644928 0 4.342784 63.980544 127.976448 0 2.945024-56.626176 60.340224 0c-2.077696 19.125248-2.077696 293.460992 0.703488 312.58624C824.39936 296.416 621.859328 295.681792 595.50464 299.352832zM787.4688 108.130048 659.492352 108.130048 659.492352 236.106496l127.976448 0L787.4688 108.130048zM275.564032 300.095232c4.28032-20.00384 3.569664-294.024192 0-319.940608l61.489152 0 2.499584 63.980544 127.976448 0 1.780736-60.290048 61.488128 0c-3.577856 22.22592-3.577856 291.801088 0.718848 316.250112C509.348352 296.396544 305.581568 295.654144 275.564032 300.095232zM467.528192 108.130048 339.551744 108.130048l-2.499584 134.924288 132.256768 0L467.528192 108.130048zM915.445248 812 211.575296 812C105.548288 812 19.611136 726.058752 19.611136 620.03584L19.611136-19.8464c0-106.022912 85.937152-191.96416 191.96416-191.96416l703.869952 0c106.011648 0 191.96416 85.941248 191.96416 191.96416L1107.409408 620.03584C1107.409408 726.058752 1021.456896 812 915.445248 812zM1043.140096-9.813248c0-75.645952-57.325568-136.974336-132.975616-136.974336l-689.32608 0c-75.641856 0-136.958976 61.328384-136.958976 136.974336l0 620.83072c0 75.650048 61.31712 136.967168 136.958976 136.967168l689.32608 0c75.650048 0 132.975616-61.31712 132.975616-136.967168L1043.140096-9.813248zM723.481088 620.03584c-28.986368-4.64384-284.447744-5.412864-319.940608 0 2.889728-15.465472 3.616768-235.846656 0-255.960064 41.289728 5.421056 291.680256 5.421056 319.940608 0.777216C720.574976 385.735424 719.856128 600.699648 723.481088 620.03584zM659.492352 428.070656 467.528192 428.070656 467.528192 556.039936l191.96416 0L659.492352 428.070656z" transform="translate(0, 812) scale(1, -1)"/>
</svg>
