<?xml version="1.0" encoding="utf-8"?>
<!DOCTYPE svg PUBLIC "-//W3C//DTD SVG 1.1//EN" "http://www.w3.org/Graphics/SVG/1.1/DTD/svg11.dtd">
<svg version="1.1" id="图形" xmlns="http://www.w3.org/2000/svg" xmlns:xlink="http://www.w3.org/1999/xlink" x="0px" y="0px" width="1109px" height="1024px" viewBox="0 0 1109 1024" enable-background="new 0 0 1109 1024" xml:space="preserve">
  <path fill="#ffffff" d="M343.242802 512.488597l43.234631 49.344206c-8.961256 8.944884-107.008117 95.152206-117.117412 102.839568l-34.367511-55.340205C267.024037 585.703223 332.477631 524.362926 343.242802 512.488597zM367.617663 381.062644c-17.452859 17.933767-98.00798 88.128906-122.234476 105.875426l-39.469226-60.070496c19.171849-12.60183 100.672413-71.617398 119.070716-91.601674L367.617663 381.062644zM557.149553 356.722571c12.890375-13.652665 25.266075-28.973158 37.140404-45.976829l37.906787 32.453089c-14.96851 15.464766-30.5622 30.011714-46.81279 43.660286-38.609731 42.082499-47.10952 46.086312-48.984037 51.117426 28.617082-0.593461 93.390242 1.448863 104.312987-0.492163l0 51.00385c0 0-76.093934-2.905911-102.187784-3.468675 0.844147 8.413839 1.796753 54.098031 2.383051 71.469033 34.039061 0 78.7113 1.308683 78.7113 1.308683l0.968978 46.222399c-7.500115-2.082228-78.125001-1.976838-78.125001-1.976838l3.094181 74.991938c0 0-34.312258 2.324729-51.843904 6.956791 2.234686-12.004276 3.734709-82.921801 3.734709-82.921801l-79.547261-0.531045 0-50.234397c11.336122 1.886796 61.859064 5.722802 78.898547 6.183246 0-19.285425-1.601321-62.32053-2.437281-71.523263-25.476856 0.511604-96.773991 0.781731-112.039231 3.523928l0-51.00385c9.922048 1.906237 78.780878 0.92191 106.367589 1.531742 0.578113 2.409655-4.08567-40.492434-112.56209-140.636872 17.023112-6.180176 31.976274-16.49616 44.867671-30.910091 46.421924 42.766002 78.648884 85.012215 96.703389 126.734544C531.109932 382.866559 544.259179 370.374213 557.149553 356.722571zM212.117672 31.659618c0 0 58.031242-36.621638 76.867479-48.269838 24.359513 47.808371 102.820127 278.156029 104.164622 282.855623-15.913954 4.663782-52.750466 19.089992-52.750466 19.089992L212.117672 31.659618zM916.118551 812 212.117672 812C106.07137 812 20.117804 726.043364 20.117804 620.000132l0-640.000241c0-106.043232 85.953566-191.999868 191.999868-191.999868l704.000879 0c106.039139 0 191.999868 85.957659 191.999868 191.999868L1108.118418 620.000132C1108.118418 726.043364 1022.15769 812 916.118551 812zM1043.837421-9.965507c0-75.660093-57.336484-137.00039-132.999647-137.00039L221.383844-146.965898c-75.656 0-136.984019 61.340297-136.984019 137.00039L84.399825 610.980554c0 75.664186 61.328019 136.992205 136.984019 136.992205l689.45393 0c75.664186 0 132.999647-61.328019 132.999647-136.992205L1043.837421-9.965507zM619.141634 310.718116c-0.031719 0-0.062416 0.027627-0.101298 0.027627C617.024616 309.312228 617.51678 309.581332 619.141634 310.718116zM784.673157 437.273599l120.422374 1.433514-0.507511 55.0005c-31.468762-5.667549-78.281552-6.496348-133.452928-6.496348 1.343472 9.382817 2.836333 52.79651 3.406259 69.277322 27.093525 0 88.906544 3.75415 98.25048 2.269475L872.791831 609.957346c-14.812982-2.968326-91.99254-7.914514-91.99254-7.914514l6.711221 83.91022c0 0-41.085895-2.456722-58.609355 0.632343 0.890191-10.656711 5.609226-84.542562 5.609226-84.542562s-66.343784 0.824706-75.234439 2.948885l0-48.683214c8.390306 1.594158 53.515825-0.417469 74.265461 0.180085 0-16.49616-2.984698-60.195327-3.859541-69.539263-28.890278 1.023208-54.680236-3.363285-77.37499 0.761267l0-50.999757c10.20343 2.417841 57.530894 1.726152 71.953011 1.726152-31.632476-72.515775-95.601394-121.082343-105.117229-127.718871 10.273008-1.547091 20.30454-4.371145 30.078223-8.465 9.780845-4.13683 17.52346-9.28152 23.211474-15.464766-0.203618-0.195433 0.156551 0.066509 0.047068-0.070601l-205.703693-1.859169-2.703316-304.859711 65.836273 0 0 12.679594L785.180668-7.321538l0-10.636247 65.828088 0-0.76536 306.297319-177.171537-1.613599c8.562205 6.183246 61.906131 54.398854 81.742042 119.496371 28.000087-52.155982 92.319966-98.835755 120.304705-123.293496 5.148783 8.757637 10.82861 16.347794 17.015949 22.792982 6.187339 6.429839 14.171431 13.003951 23.983996 19.702893C833.665379 365.019765 784.673157 437.273599 784.673157 437.273599zM785.180668 56.54199 530.883803 56.54199l-1.500023 69.874875L785.180668 126.416865 785.180668 56.54199zM785.180668 237.062487l0-63.089983L529.907663 173.972504l-0.523883 63.141143L785.180668 237.062487z" transform="translate(0, 812) scale(1, -1)"/>
</svg>
