<?xml version="1.0" encoding="utf-8"?>
<!DOCTYPE svg PUBLIC "-//W3C//DTD SVG 1.1//EN" "http://www.w3.org/Graphics/SVG/1.1/DTD/svg11.dtd">
<svg version="1.1" id="图形" xmlns="http://www.w3.org/2000/svg" xmlns:xlink="http://www.w3.org/1999/xlink" x="0px" y="0px" width="1108px" height="1024px" viewBox="0 0 1108 1024" enable-background="new 0 0 1108 1024" xml:space="preserve">
  <path fill="#ffffff" d="M595.717202 300.00053c0 0-78.734491 0.492539-127.999612 0l0 63.992126c60.156264-0.511994 129.062512 1.414128 129.062512 1.414128l0 60.941663c-32.671383-3.558361-109.687622-6.097853-109.687622-6.097853l69.233924 73.125081-67.679509 32.750231-20.929305-98.124741L211.717344 428.001165l0-64.007486c36.297327 4.570062 119.374555-0.511994 191.999929 0l0-63.992126L275.717661 300.001554l0-64.000318c0 0 65.765674-0.519162 127.999612 0l0-127.999612c0-44.203544 16.046927-77.402282-64.000318-64.007486 17.109827-21.828367-1.046516-37.578337 0-63.992126 25.093867 4.038611 42.687017 0 64.000318 0 60.101993 0 64.000318 44.019226 64.000318 63.992126l0 192.008121 127.999612 0L595.717202 300.00053zM301.94406 504.79315l32.679575-76.16428 62.226769 22.089484c0 0-27.741902 53.312948-36.554349 76.168375L301.94406 504.79315zM595.717202 555.992585l0 64.007486L467.717591 620.000071l0 63.992126-64.000318 0 0-63.992126L275.717661 620.000071l0-64.007486C325.732341 553.995807 595.717202 555.992585 595.717202 555.992585zM275.717661 171.992727l64.000318 0 0-127.999612-64.000318 0 0 127.999612ZM531.716884 171.992727l64.000318 0 0-127.999612-64.000318 0 0 127.999612ZM915.716743 812 211.717344 812C105.670002 812 19.717414 726.043317 19.717414 620.000071l0-640.000105c0-106.043246 85.952587-191.999929 191.999929-191.999929l703.999399 0c106.030958 0 191.999929 85.956683 191.999929 191.999929L1107.716672 620.000071C1107.716672 726.043317 1021.747701 812 915.716743 812zM1043.435782-9.963921c0-75.660477-57.336199-136.999448-132.999748-136.999448L220.983417-146.96337c-75.656381 0-136.984088 61.339995-136.984088 136.999448L83.999329 610.980778c0 75.663549 61.327707 136.99228 136.984088 136.99228l689.452616 0c75.663549 0 132.999748-61.327707 132.999748-136.99228L1043.435782-9.963921zM723.716814 428.000141 723.716814 555.992585c131.686995 0 191.218626 28.78125 191.218626 28.78125s-61.452634 99.218361-49.015267 72.359138c-57.343367-43.125284-212.26569-36.840041-206.202653-37.132902 4.14101-43.679262 0-132.590153 0-191.999929l0-256.007415c0-36.105842-14.453601-116.71116-64.000318-127.999612 32.671383-8.113062 49.468894-51.292618 64.000318-63.992126 32.671383 47.730161 64.000318 133.785148 64.000318 191.991737 0 58.222974-1.046516 101.620639 0 191.999929l64.000318 0c0 0 0-327.894494 0-383.991667l64.000318 0c0 66.597153 0 383.991667 0 383.991667 31.624867-1.022965 40.656447 1.663982 64.000318-3.910613l0 71.59729C862.435539 434.777923 723.716814 428.000141 723.716814 428.000141z" transform="translate(0, 812) scale(1, -1)"/>
</svg>
