<?xml version="1.0" encoding="utf-8"?>
<!DOCTYPE svg PUBLIC "-//W3C//DTD SVG 1.1//EN" "http://www.w3.org/Graphics/SVG/1.1/DTD/svg11.dtd">
<svg version="1.1" id="图形" xmlns="http://www.w3.org/2000/svg" xmlns:xlink="http://www.w3.org/1999/xlink" x="0px" y="0px" width="1109px" height="1024px" viewBox="0 0 1109 1024" enable-background="new 0 0 1109 1024" xml:space="preserve">
  <path fill="#ffffff" d="M340.101004 619.999939c-32.999547-111.847487-58.351385-222.84773-128.000382-320.000443 5.680015-22.7262 0-63.999679 0-63.999679s48.453567 36.640241 63.999679 63.999679l0-320.000443 63.999679 0L340.099981 427.999878c27.499622 54.996175 52.718439 131.488613 72.922347 190.1879L340.101004 619.999939zM763.155194 480.058326c9.706471 18.118542 19.210341 56.587316 24.945611 71.242184-22.570667 21.78891-85.500035 57.269818-85.500035 57.269818l-42.500347-38.945605C698.741102 536.941359 737.381781 509.081555 763.155194 480.058326zM916.101187 812l-704.000565 0C106.053892 812 20.100561 726.042576 20.100561 619.999939l0-639.999862c0-106.042637 85.953331-192.000061 192.000061-192.000061l704.000565 0c106.039567 0 192.000061 85.957424 192.000061 192.000061L1108.101248 619.999939C1108.101248 726.042576 1022.13973 812 916.101187 812zM1043.819154-9.964991c0-75.660542-57.343492-136.999793-132.999941-136.999793L221.366076-146.964784c-75.656449 0-136.984444 61.340274-136.984444 136.999793L84.381632 610.980063c0 75.663612 61.327995 136.99263 136.984444 136.99263l689.453136 0c75.656449 0 132.999941-61.327995 132.999941-136.99263L1043.819154-9.964991zM852.100484 171.991952c-19.394524-7.514687-46.378433-17.748128-63.999679-21.848258-1.843882-45.84737-1.023242-106.1511-1.023242-106.1511l-83.300065 0c-42.293652-0.939336-43.677075 33.510144-43.677075 64.007865L660.100423 363.992013l192.000061 0 0 64.007865L596.100744 427.999878c3.656043 47.656462 0 118.644882 0 192.000061l-63.999679 0c0-23.49977 1.437655-158.738564 0-192.000061L404.100683 427.999878l0-64.007865 128.000382 0c0 0-9.937724-205.116997-132.000234-320.000443 5.491739-3.64888 3.999852-63.992517 3.999852-63.992517s75.828354 31.88626 125.086189 130.394767c46.679266 93.355462 66.913872 253.598192 66.913872 253.598192l0-276.235369c0.918871-62.440259 17.290739-107.936657 63.999679-107.756567l123.660813 0c57.566558-0.417483 68.409851 21.013293 68.339248 68.339248C852.59471 84.218274 850.256603 124.308886 852.100484 171.991952z" transform="translate(0, 812) scale(1, -1)"/>
</svg>
