<?xml version="1.0" encoding="utf-8"?>
<!DOCTYPE svg PUBLIC "-//W3C//DTD SVG 1.1//EN" "http://www.w3.org/Graphics/SVG/1.1/DTD/svg11.dtd">
<svg version="1.1" id="图形" xmlns="http://www.w3.org/2000/svg" xmlns:xlink="http://www.w3.org/1999/xlink" x="0px" y="0px" width="1024px" height="1024px" viewBox="0 0 1024 1024" enable-background="new 0 0 1024 1024" xml:space="preserve">
  <path fill="#ffffff" d="M908.451362 218.319066q0-30.879377-22.910506-51.299611t-54.785992-20.420233l-278.910506 0q29.883268-46.817121 44.824903-94.132296t19.922179-86.163424q5.976654-45.821012 4.980545-87.657588-9.961089-47.81323-33.36965-69.229572t-58.272374-21.416342q-12.949416 0-26.396887 5.478599t-23.906615 17.431907-17.431907 31.377432-7.968872 48.311284q0 32.871595-12.451362 64.747082t-32.373541 60.762646-45.322957 55.284047-51.299611 47.315175-50.801556 36.357977-43.828794 23.40856q-20.918288 8.964981-32.373541 22.910506t-17.431907 31.377432-7.470817 36.357977-1.494163 37.85214l0 294.848249q0 32.871595 11.455253 58.770428t30.879377 44.824903 45.821012 28.88716 57.276265 9.961089l232.093385 0 170.33463 0q15.937743 0 35.361868-4.48249t35.859922-13.447471 27.891051-23.40856 11.455253-33.36965q0-31.875486-19.922179-53.789883t-51.797665-21.914397q20.918288 0 39.844358-5.976654t33.867704-15.937743 23.40856-23.40856 8.466926-29.385214q0-31.875486-22.412451-53.789883t-54.287938-21.914397l27.891051 0q31.875486 0 54.785992-21.416342t22.910506-53.291829-22.910506-52.29572-54.785992-20.420233l27.891051 0q15.937743 0 30.381323-6.474708t24.902724-16.933852 16.435798-24.404669 5.976654-29.883268z" transform="translate(0, 812) scale(1, -1)"/>
</svg>
