<?xml version="1.0" encoding="utf-8"?>
<!DOCTYPE svg PUBLIC "-//W3C//DTD SVG 1.1//EN" "http://www.w3.org/Graphics/SVG/1.1/DTD/svg11.dtd">
<svg version="1.1" id="图形" xmlns="http://www.w3.org/2000/svg" xmlns:xlink="http://www.w3.org/1999/xlink" x="0px" y="0px" width="1024px" height="1024px" viewBox="0 0 1024 1024" enable-background="new 0 0 1024 1024" xml:space="preserve">
  <path fill="#ffffff" d="M782.336 600.032q1.024 8.192 5.12 17.408 4.096 8.192 12.8 17.408t26.112 18.432q9.216 5.12 26.112 8.192t35.328-1.024 35.328-17.92 27.136-41.472q8.192-22.528 0-47.104t-22.528-39.936q-7.168-7.168-12.8-11.776t-10.752-7.68q-5.12-4.096-11.264-6.144 17.408-23.552 33.792-57.344 14.336-29.696 27.136-74.24t18.944-105.984q4.096-46.08-5.12-84.992t-26.624-71.168-40.448-57.856-47.104-44.544-46.08-31.232-36.352-17.408q-21.504-8.192-49.664-19.968t-59.392-22.016-65.024-17.408-67.584-7.168-69.632 8.192-70.656 20.48-66.048 26.112-55.808 25.088q-24.576 10.24-54.272 30.72t-56.32 50.688-46.592 71.68-25.088 93.696q-5.12 53.248 5.12 100.864t24.576 84.48q17.408 41.984 40.96 79.872-7.168 1.024-16.384 6.144-8.192 5.12-18.432 14.848t-22.528 28.16-13.824 43.008 7.68 46.592 29.184 37.888 50.688 16.896 49.664-8.704 30.208-22.016q12.288-14.336 19.456-32.768 30.72 25.6 70.656 45.056 33.792 17.408 81.408 31.744t105.984 14.336 104.96-13.824 79.36-31.232q38.912-19.456 68.608-45.056zM387.072 405.472q-21.504 8.192-45.568 6.656t-46.592-12.288-41.472-29.184-31.232-44.032q-11.264-24.576-16.384-53.248t0-54.784 24.064-46.08 55.808-25.088q30.72-5.12 58.88 5.12t50.688 30.72 37.888 48.64 18.432 58.88q5.12 51.2-14.848 77.312t-49.664 37.376zM610.304 290.784q3.072-30.72 17.92-58.88t37.376-48.64 50.688-30.72 58.88-5.12q36.864 5.12 55.808 25.088t24.064 46.08 0 54.784-16.384 53.248q-12.288 25.6-31.232 44.032t-41.472 29.184-46.592 12.288-45.568-6.656q-29.696-11.264-49.152-37.376t-14.336-77.312zM528.384 186.336q-19.456 1.024-35.328-5.632t-16.896-18.944q-1.024-11.264 5.12-20.48t8.192-14.336q4.096-10.24 6.144-13.312l3.072-6.144q1.024-4.096 1.024-8.192-1.024-4.096-3.072-8.192t-7.168-6.144q-8.192-5.12-15.36-5.632t-17.408 1.536q-11.264 2.048-10.24-9.216t19.456-21.504q25.6-14.336 59.392-13.312t61.44 12.288q15.36 6.144 22.016 12.8t6.656 12.288-4.608 8.192-10.752 1.536q-14.336-3.072-22.528-3.072t-13.312 6.144q-3.072 4.096-5.12 12.288-1.024 4.096-1.024 7.168 3.072 3.072 6.144 8.192 2.048 5.12 5.12 11.264t7.168 15.36q7.168 18.432 0.512 27.648t-17.92 13.312q-12.288 4.096-30.72 4.096z" transform="translate(0, 812) scale(1, -1)"/>
</svg>
