<?xml version="1.0" encoding="utf-8"?>
<!DOCTYPE svg PUBLIC "-//W3C//DTD SVG 1.1//EN" "http://www.w3.org/Graphics/SVG/1.1/DTD/svg11.dtd">
<svg version="1.1" id="图形" xmlns="http://www.w3.org/2000/svg" xmlns:xlink="http://www.w3.org/1999/xlink" x="0px" y="0px" width="1024px" height="1024px" viewBox="0 0 1024 1024" enable-background="new 0 0 1024 1024" xml:space="preserve">
  <path fill="#ffffff" d="M884.736 765.92q17.408 0 34.304-8.192t29.696-20.992 20.992-29.696 8.192-34.304l0-465.92-744.448 0q-39.936 0-66.56-37.376t-27.648-121.344q0-45.056 7.68-76.8t20.48-51.712 29.696-29.184 35.328-9.216l39.936 0 87.04 0 116.736 0 131.072 0 351.232 0 19.456-47.104-745.472 0q-139.264 0-139.264 140.288l0 698.368q0 17.408 7.68 34.304t20.992 29.696 30.208 20.992 34.304 8.192l419.84 0 0-372.736 66.56 93.184 72.704-93.184 1.024 372.736 138.24 0zM977.92 159.712q-14.336-15.36-25.6-33.792-9.216-16.384-16.896-38.912t-7.68-50.176 7.68-47.616 16.896-34.304q11.264-16.384 25.6-27.648l-744.448 0q-17.408 0-26.624 17.92t-14.336 39.424q-5.12 25.6-6.144 57.344 1.024 31.744 6.144 58.368 5.12 22.528 13.824 40.96t26.112 18.432l745.472 0z" transform="translate(0, 812) scale(1, -1)"/>
</svg>
