<?xml version="1.0" encoding="utf-8"?>
<!DOCTYPE svg PUBLIC "-//W3C//DTD SVG 1.1//EN" "http://www.w3.org/Graphics/SVG/1.1/DTD/svg11.dtd">
<svg version="1.1" id="图形" xmlns="http://www.w3.org/2000/svg" xmlns:xlink="http://www.w3.org/1999/xlink" x="0px" y="0px" width="1024px" height="1024px" viewBox="0 0 1024 1024" enable-background="new 0 0 1024 1024" xml:space="preserve">
  <path fill="#ffffff" d="M500.736 334.816q-21.504 0-34.816 13.312-13.312 14.336-13.312 35.84 0 20.48 13.312 33.792 12.288 13.312 32.768 13.312 21.504 0 34.816-13.312 13.312-12.288 13.312-33.792 0-22.528-13.312-35.84-12.288-13.312-32.768-13.312zM549.888 238.56q19.456-16.384 19.456-45.056 0-26.624-18.432-43.008-19.456-16.384-49.152-16.384-30.72 0-50.176 17.408-19.456 18.432-19.456 44.032t20.48 43.008q19.456 18.432 50.176 18.432 28.672 0 47.104-18.432zM930.816 652.256q38.912 0 66.048-27.136t27.136-66.048l0-558.08q0-38.912-27.136-66.048t-66.048-27.136l-93.184 0 0 46.08-47.104 0 0-46.08-697.344 0q-38.912 0-66.048 27.136t-27.136 66.048l0 558.08q0 38.912 27.136 66.048t66.048 27.136l697.344 0 0-47.104 47.104 0 0 47.104 93.184 0zM277.504 500.704l-123.904 0-48.128-77.824 80.896 0 0-355.328 91.136 0 0 433.152zM632.832 120.8q18.432 30.72 18.432 68.608 0 34.816-16.384 63.488-15.36 30.72-45.056 49.152 21.504 22.528 31.744 45.056 8.192 21.504 8.192 43.008 0 34.816-16.384 61.44-17.408 29.696-46.08 45.056-29.696 15.36-65.536 15.36-39.936 0-68.608-15.36-29.696-15.36-46.08-44.032-16.384-26.624-16.384-61.44 0-25.6 10.24-47.104 8.192-20.48 29.696-41.984-31.744-23.552-45.056-50.176-15.36-29.696-15.36-62.464 0-38.912 18.432-70.656t50.176-47.104q30.72-15.36 83.968-15.36 49.152 0 78.848 16.384 30.72 14.336 51.2 48.128zM837.632 93.152l-47.104 0 0-46.08 47.104 0 0 46.08zM837.632 232.416l-47.104 0 0-47.104 47.104 0 0 47.104zM837.632 371.68l-47.104 0 0-47.104 47.104 0 0 47.104zM837.632 510.944l-47.104 0 0-46.08 47.104 0 0 46.08z" transform="translate(0, 812) scale(1, -1)"/>
</svg>
