<?xml version="1.0" encoding="utf-8"?>
<!DOCTYPE svg PUBLIC "-//W3C//DTD SVG 1.1//EN" "http://www.w3.org/Graphics/SVG/1.1/DTD/svg11.dtd">
<svg version="1.1" id="图形" xmlns="http://www.w3.org/2000/svg" xmlns:xlink="http://www.w3.org/1999/xlink" x="0px" y="0px" width="1024px" height="1024px" viewBox="0 0 1024 1024" enable-background="new 0 0 1024 1024" xml:space="preserve">
  <path fill="#ffffff" d="M411.748252 810.977023q-17.390609-23.528472-30.689311-42.965035-11.252747-17.390609-21.994006-32.223776t-12.787213-17.902098q-10.22977-17.390609-2.045954-27.62038 4.091908-4.091908 8.695305-9.718282t11.764236-10.741259q6.137862-5.114885 9.206793-12.787213t0-14.833167-7.160839-15.856144-8.183816-14.833167q-8.183816-17.390609 5.114885-36.827173 7.160839-10.22977 25.062937-38.361638t36.315684-56.775225q8.183816-14.321678 23.016983-36.827173t29.154845-42.965035q16.367632-24.551449 34.781219-51.148851 15.344655 22.505495 29.666334 43.988012 12.275724 18.413586 25.062937 37.338661t20.971029 31.200799q7.160839 12.275724 18.413586 30.689311l24.551449 34.781219q11.252747 18.413586 20.45954 32.735265t12.275724 19.436563q11.252747 19.436563 4.091908 32.735265-3.068931 5.114885-6.137862 10.741259t-7.160839 13.81019q-7.160839 16.367632-2.045954 24.551449 4.091908 4.091908 11.252747 11.764236t15.344655 18.925075q8.183816 10.22977 2.557443 19.436563t-14.833167 23.528472q-5.114885 6.137862-13.81019 18.925075t-17.902098 26.085914q-11.252747 15.344655-22.505495 31.712288 5.114885 0 9.206793-1.022977 7.160839-2.045954 18.413586-3.068931 4.091908-2.045954 12.787213-7.160839t17.902098-11.252747 18.925075-12.275724 17.902098-9.206793q14.321678-6.137862 28.131868-9.206793t34.26973-8.183816 35.804196-19.436563 21.482517-45.010989q3.068931-15.344655 9.206793-40.919081t14.833167-56.263736 17.902098-64.447552 18.413586-66.493506 25.062937-72.11988 31.712288-74.677323 29.154845-61.89011 17.390609-33.758242q8.183816-14.321678 11.764236-26.085914t-2.557443-18.925075q-5.114885-7.160839-18.925075-15.344655t-25.062937-13.298701-26.085914-3.58042-25.062937 18.925075q-5.114885 8.183816-15.856144 27.62038t-24.03996 45.010989-28.131868 54.217782-27.108891 56.263736q-13.298701 26.597403-24.03996 61.378621t-18.925075 64.447552q-10.22977 34.781219-17.390609 70.585415-3.068931-27.62038-6.137862-56.263736-2.045954-25.574426-4.603397-56.263736t-4.603397-60.355644q-2.045954-30.689311 0.511489-75.7003t7.160839-88.999001 9.718282-79.792208 7.160839-48.07992q5.114885-23.528472 5.114885-37.338661t-25.574426-24.03996q-12.275724-5.114885-30.177822-9.718282t-37.85015-7.672328-38.873127-5.626374-32.223776-3.58042q-27.62038-2.045954-34.781219 8.183816t-9.206793 21.482517q-2.045954 6.137862-5.114885 26.085914t-7.160839 44.4995-7.672328 48.07992-5.626374 35.804196-5.114885 29.154845-5.114885 33.246753q-3.068931 18.413586-6.137862 38.873127-3.068931-16.367632-6.137862-33.758242-3.068931-14.321678-6.137862-31.712288t-5.114885-34.781219q-2.045954-16.367632-5.626374-39.384615t-7.672328-46.033966-7.160839-42.453546-5.114885-28.643357-3.58042-15.344655-5.626374-9.206793-11.764236-4.091908-21.994006 0-33.246753 3.58042-38.873127 6.649351-38.361638 8.695305-30.689311 8.695305-17.902098 10.741259-7.160839 14.833167 0.511489 17.390609 5.114885 18.413586 7.672328 42.965035 9.206793 75.7003 7.160839 84.907093 1.534466 71.608392q-2.045954 28.643357-4.603397 62.401598t-4.603397 63.424575q-3.068931 33.758242-6.137862 69.562438-9.206793-35.804196-19.436563-69.562438-8.183816-29.666334-17.902098-62.913087t-17.902098-58.821179-24.551449-58.30969-32.735265-62.913087-29.154845-52.683317-15.856144-27.62038q-6.137862-9.206793-19.436563-12.787213t-25.574426 1.534466q-13.298701 5.114885-23.528472 11.764236t-20.45954 14.833167-8.695305 18.925075 8.695305 25.062937q4.091908 7.160839 18.413586 38.361638t31.200799 68.027972 31.200799 71.096903 19.436563 46.545455q4.091908 12.275724 12.275724 42.453546t17.390609 64.959041 17.390609 67.004995 12.275724 48.591409q8.183816 32.735265 14.833167 50.637363t19.948052 30.177822q14.321678 11.252747 39.384615 16.367632t49.614386 13.298701 36.827173 19.436563 26.597403 18.413586q19.436563 8.183816 26.597403 8.183816 4.091908 0 8.183816-1.022977zM415.84016 778.241758q6.137862-31.712288 13.298701-62.401598 5.114885-26.597403 12.275724-56.263736t13.298701-54.217782 15.344655-58.30969 18.413586-64.447552q11.252747-35.804196 22.505495-72.631369 13.298701 46.033966 24.551449 86.953047 10.22977 34.781219 19.436563 69.050949t13.298701 49.614386q4.091908 14.321678 9.718282 41.430569t11.764236 53.706294q6.137862 30.689311 14.321678 64.447552 9.206793-12.275724 17.390609-23.528472l14.321678-20.45954q7.160839-10.22977 11.252747-15.344655 8.183816-11.252747 5.626374-15.344655t-7.672328-9.206793l-16.367632-16.367632q-4.091908-5.114885-7.672328-11.764236t0.511489-14.833167l7.160839-13.298701q2.045954-5.114885 7.160839-17.390609 6.137862-13.298701 4.091908-20.971029t-6.137862-14.833167q-3.068931-4.091908-8.183816-12.787213t-11.764236-18.925075-13.81019-20.971029-12.275724-18.925075-17.902098-28.131868-26.085914-40.407592q-15.344655-24.551449-32.735265-51.148851-15.344655 23.528472-27.62038 45.010989-11.252747 17.390609-22.505495 35.804196t-17.390609 27.62038-13.298701 20.971029-14.833167 23.528472-14.321678 22.505495-10.741259 16.879121q-10.22977 17.390609-6.137862 29.666334 2.045954 5.114885 6.649351 14.833167t9.718282 19.948052 1.534466 17.390609-6.649351 10.22977q-3.068931 4.091908-6.137862 7.160839t-10.22977 11.252747q-7.160839 7.160839-6.649351 11.764236t5.626374 14.833167q2.045954 3.068931 7.672328 12.275724t12.787213 19.436563q8.183816 11.252747 17.390609 26.597403z" transform="translate(0, 812) scale(1, -1)"/>
</svg>
