<?xml version="1.0" encoding="utf-8"?>
<!DOCTYPE svg PUBLIC "-//W3C//DTD SVG 1.1//EN" "http://www.w3.org/Graphics/SVG/1.1/DTD/svg11.dtd">
<svg version="1.1" id="图形" xmlns="http://www.w3.org/2000/svg" xmlns:xlink="http://www.w3.org/1999/xlink" x="0px" y="0px" width="1086px" height="1024px" viewBox="0 0 1086 1024" enable-background="new 0 0 1086 1024" xml:space="preserve">
  <path fill="#ffffff" d="M321.214785 420.1998l455.224775 2.045954-218.917083-550.361638zM373.386613 619.68032l346.789211-3.068931 61.378621-134.00999-450.10989 3.068931zM274.157842 489.762238l-274.157842 114.573427 147.308691 109.458541 175.952048-91.044955zM0 537.842158l259.836164-115.596404 279.272727-546.26973zM841.91009 423.268731l243.468531 125.826174-512.511489-670.04995zM836.795205 490.785215l-68.539461 141.170829 156.515485 86.953047 135.032967-113.55045zM368.271728 687.196803l-59.332667 15.344655-111.504496 62.401598 130.941059 47.056943 427.604396 0 129.918082-54.217782-124.803197-60.355644-41.942058-10.22977-350.881119 0z" transform="translate(0, 812) scale(1, -1)"/>
</svg>
