<?xml version="1.0" encoding="utf-8"?>
<!DOCTYPE svg PUBLIC "-//W3C//DTD SVG 1.1//EN" "http://www.w3.org/Graphics/SVG/1.1/DTD/svg11.dtd">
<svg version="1.1" id="图形" xmlns="http://www.w3.org/2000/svg" xmlns:xlink="http://www.w3.org/1999/xlink" x="0px" y="0px" width="1024px" height="1024px" viewBox="0 0 1024 1024" enable-background="new 0 0 1024 1024" xml:space="preserve">
  <path fill="#ffffff" d="M589.824 536.544q20.48 0 35.84 12.8t27.648 28.672 24.576 30.72 26.624 18.944q11.264 3.072 27.648 6.656t36.352-1.024 41.984-21.504 44.544-53.76q25.6-41.984 46.08-89.088t34.816-90.624 23.04-79.36 11.776-55.296q2.048-17.408 4.608-41.984t-0.512-49.152-13.824-45.056-35.328-29.696q-26.624-9.216-48.128-2.56t-39.424 25.6-33.28 46.592-28.672 59.392-33.28 50.176-40.96 28.672-40.96 13.312-33.28 3.072l-40.96 0q-26.624 0-58.88-0.512t-66.048-0.512-61.44 1.024q-56.32 1.024-92.16-19.968t-52.224-45.568q-8.192-12.288-14.336-28.16t-13.824-33.792-19.456-37.376-31.232-37.888-40.448-24.064-39.936 0.512-33.28 23.552-18.432 44.032q-5.12 30.72-0.512 73.216t16.384 90.112 29.184 96.768 37.888 93.184 39.936 71.168 37.376 41.984 34.816 19.968 32.256 5.12q31.744 0 51.712-12.8t35.328-38.4q10.24-17.408 29.696-31.744t36.864-15.36l82.944 0 80.896 0zM508.928 463.84q-14.336 0-24.064-9.728t-9.728-24.064 9.728-24.064 24.064-9.728 24.576 9.728 10.24 24.064-10.24 24.064-24.576 9.728zM749.568 497.632q-9.216 0-15.872-6.656t-6.656-15.872q0-10.24 6.656-16.896t15.872-6.656 15.872 6.656 6.656 16.896q0 9.216-6.656 15.872t-15.872 6.656zM749.568 405.472q-9.216 0-15.872-6.656t-6.656-15.872q0-10.24 6.656-16.896t15.872-6.656 15.872 6.656 6.656 16.896q0 9.216-6.656 15.872t-15.872 6.656zM794.624 450.528q-9.216 0-15.872-6.656t-6.656-15.872 6.656-15.872 15.872-6.656q10.24 0 16.896 6.656t6.656 15.872-6.656 15.872-16.896 6.656zM703.488 450.528q-9.216 0-15.872-6.656t-6.656-15.872 6.656-15.872 15.872-6.656q10.24 0 16.896 6.656t6.656 15.872-6.656 15.872-16.896 6.656zM304.128 493.536q0 17.408-17.408 17.408-7.168 0-12.288-4.608t-5.12-12.8l0-128q0-8.192 5.12-12.8t12.288-4.608q17.408 0 17.408 17.408l0 128zM223.232 446.432q-8.192 0-13.312-4.608t-5.12-11.776q0-8.192 5.12-12.8t13.312-4.608l128 0q7.168 0 12.288 4.608t5.12 12.8q0 7.168-5.12 11.776t-12.288 4.608l-128 0z" transform="translate(0, 812) scale(1, -1)"/>
</svg>
