<?xml version="1.0" encoding="utf-8"?>
<!DOCTYPE svg PUBLIC "-//W3C//DTD SVG 1.1//EN" "http://www.w3.org/Graphics/SVG/1.1/DTD/svg11.dtd">
<svg version="1.1" id="图形" xmlns="http://www.w3.org/2000/svg" xmlns:xlink="http://www.w3.org/1999/xlink" x="0px" y="0px" width="1138px" height="1024px" viewBox="0 0 1138 1024" enable-background="new 0 0 1138 1024" xml:space="preserve">
  <path fill="#ffffff" d="M57.242236 185.969831l397.969831 0 0-397.969831-397.969831 0 0 397.969831zM683.272405 185.969831l397.969831 0 0-397.969831-397.969831 0 0 397.969831zM0 527.606034l455.212067 0 0-284.393966-455.212067 0 0 284.393966zM1137.575865 527.606034l0-284.393966-454.303461 0 0 284.393966 454.303461 0zM512.454303 527.606034l113.575865 0 0-739.606034-113.575865 0 0 739.606034zM683.272405 583.939663l-228.060337 0 0 170.818101 228.060337 0 0-170.818101zM1024 583.939663l-284.393966 0 111.758651 228.060337 172.635315 0 0-228.060337zM398.878438 583.939663l-284.393966 0 0 228.060337 169.909494 0z" transform="translate(0, 812) scale(1, -1)"/>
</svg>
