<?xml version="1.0" encoding="utf-8"?>
<!DOCTYPE svg PUBLIC "-//W3C//DTD SVG 1.1//EN" "http://www.w3.org/Graphics/SVG/1.1/DTD/svg11.dtd">
<svg version="1.1" id="图形" xmlns="http://www.w3.org/2000/svg" xmlns:xlink="http://www.w3.org/1999/xlink" x="0px" y="0px" width="1024px" height="1024px" viewBox="0 0 1024 1024" enable-background="new 0 0 1024 1024" xml:space="preserve">
  <path fill="#ffffff" d="M474.18097 684.709107l-134.35708 0q-13.933327 0-21.397609 6.469045t-10.449995 16.421421-2.985713 22.392847 1.990475 23.388084q0.995238 10.947614 3.980951 23.885703t8.45952 21.895228 14.430946 11.942852 21.895228-4.976188q14.928564-8.957139 33.83808-19.407134t36.823792-20.89999 33.340461-18.909515 23.388084-13.435708q9.952376-6.966663 14.928564-15.426183t3.980951-15.923802-7.961901-12.44047-19.904753-4.976188zM551.809505 685.704344l133.361843 0q13.933327 0 21.397609 6.469045t10.449995 16.421421 2.985713 22.392847-0.995238 23.388084q-1.990475 10.947614-4.478569 23.388084t-7.961901 21.397609-14.430946 11.942852-21.895228-3.980951q-14.928564-8.957139-33.83808-19.407134t-37.321411-20.89999-33.83808-18.909515-22.392847-13.435708q-10.947614-6.966663-15.923802-15.426183t-3.980951-15.923802 7.961901-12.44047 20.89999-4.976188zM460.247643 620.018661l-288.618913 0q-31.847604 0-41.302362-10.449995t-9.454758-33.340461l0-87.580912q0-24.880941 10.449995-36.823792t41.302362-11.942852l287.623676 0 0 180.138011zM568.728545 620.018661l284.637963 0q31.847604 0 43.292837-12.44047t11.445233-35.330936l0-85.590436q0-23.885703-10.449995-35.330936t-41.302362-11.445233l-287.623676 0 0 180.138011zM460.247643 387.133055l-305.537953 0 0-163.218972 0-64.690446 0-60.709496 0-51.752357 0-35.828555q0-50.757119 28.861891-78.623773t89.571387-27.866654l187.104675 0 0 482.690252zM568.728545 387.133055l304.542716 0 0-373.214112q-0.995238-50.757119-28.861891-80.116629t-88.576149-29.35951l-187.104675 0 0 482.690252z" transform="translate(0, 812) scale(1, -1)"/>
</svg>
