<?xml version="1.0" encoding="utf-8"?>
<!DOCTYPE svg PUBLIC "-//W3C//DTD SVG 1.1//EN" "http://www.w3.org/Graphics/SVG/1.1/DTD/svg11.dtd">
<svg version="1.1" id="图形" xmlns="http://www.w3.org/2000/svg" xmlns:xlink="http://www.w3.org/1999/xlink" x="0px" y="0px" width="1024px" height="1024px" viewBox="0 0 1024 1024" enable-background="new 0 0 1024 1024" xml:space="preserve">
  <path fill="#ffffff" d="M925.696 347.104q0-16.384-6.656-31.232t-17.408-26.112-26.112-17.92-31.744-6.656l-29.696 0q33.792 0 57.856-22.528t24.064-55.296-24.064-56.32-57.856-23.552l-30.72 0q34.816 0 58.88-23.552t24.064-56.32q0-16.384-9.216-31.232t-25.088-25.6-36.352-16.896-41.984-6.144q33.792 0 54.784-24.064t20.992-56.832q0-20.48-11.776-35.328t-29.696-24.576-38.4-14.336-36.864-4.608l-182.272 0-246.784 0q-32.768 0-60.928 10.752t-49.152 30.72-32.768 47.616-11.776 62.464l0 313.344q0 20.48 1.536 40.96t7.68 38.4 18.944 32.768 34.304 24.064q20.48 8.192 46.592 24.576t54.272 38.912 54.784 50.688 48.128 59.392 34.304 65.024 12.8 68.608q1.024 30.72 8.192 51.2t18.944 33.28 25.6 18.432 28.16 5.632q36.864 0 61.952-22.528t35.328-73.728q2.048-44.032-5.12-93.184-6.144-41.984-21.504-92.16t-47.104-99.328l296.96 0q33.792 0 57.856-22.016t24.064-54.784z" transform="translate(0, 812) scale(1, -1)"/>
</svg>
