<?xml version="1.0" encoding="utf-8"?>
<!DOCTYPE svg PUBLIC "-//W3C//DTD SVG 1.1//EN" "http://www.w3.org/Graphics/SVG/1.1/DTD/svg11.dtd">
<svg version="1.1" id="图形" xmlns="http://www.w3.org/2000/svg" xmlns:xlink="http://www.w3.org/1999/xlink" x="0px" y="0px" width="1024px" height="1024px" viewBox="0 0 1024 1024" enable-background="new 0 0 1024 1024" xml:space="preserve">
  <path fill="#ffffff" d="M642.048 692.192q17.408 31.744 28.672 46.592t17.408 19.968 16.896 2.048 16.896-15.36 5.12-34.304-7.168-62.976q-3.072-20.48-14.336-46.08t-24.576-50.688-26.112-46.592-19.968-32.768q-8.192-11.264-23.552-31.744l-30.72-40.96q-18.432-23.552-37.888-49.152 11.264-18.432 22.528-34.816 9.216-14.336 17.92-28.16t13.824-22.016q16.384-26.624 47.616-52.224t61.952-40.96q15.36-8.192 45.056-17.408t58.368-28.16 49.664-52.224 17.92-89.6q-2.048-45.056-20.48-77.312t-46.08-52.224-61.952-27.648-67.584-3.072-62.976 22.016-48.128 48.128q-18.432 28.672-25.088 56.832t-6.656 56.832 4.608 58.368 9.728 60.416q3.072 17.408 2.56 29.184t-3.072 20.48-6.656 14.848l-8.192 12.288q-4.096 6.144-12.288 17.92t-16.384 23.04q-10.24 13.312-21.504 27.648l-16.384-22.528q-8.192-10.24-16.896-22.528t-16.896-23.552q-17.408-23.552-18.944-38.4t3.584-35.328q3.072-10.24 7.68-37.376t3.072-62.464-12.288-74.24-39.424-73.728q-24.576-29.696-56.32-44.032t-64-15.36-63.488 10.24-55.808 31.744-39.936 50.176-16.384 65.536q-2.048 54.272 18.432 89.6t50.176 57.856 61.952 35.328 54.784 20.992q21.504 8.192 36.352 15.872t25.6 15.36 17.92 15.872 15.36 17.408 18.944 25.088 22.016 32.256q12.288 18.432 25.6 39.936-8.192 11.264-19.456 25.6-9.216 12.288-23.04 29.184t-30.208 37.376q-16.384 21.504-33.792 50.688t-32.256 57.856-26.112 53.248-15.36 35.84-8.192 29.184-5.12 35.328 2.048 32.256 12.288 20.992q9.216 5.12 15.872 4.608t11.776-5.12 9.728-12.288 11.776-17.92q3.072-5.12 12.8-19.968t23.552-35.84 30.208-46.592l32.768-51.2q38.912-60.416 87.04-135.168 35.84 61.44 67.584 113.664l26.624 45.056q13.312 22.528 25.088 41.984t20.48 34.304 13.824 23.04zM254.976 76.768q-37.888 0-64-26.112t-26.112-62.976 26.112-63.488 64-26.624q36.864 0 62.976 26.624t26.112 63.488-26.112 62.976-62.976 26.112zM710.656 76.768q-36.864 0-63.488-26.112t-26.624-62.976q0-18.432 7.168-34.816t19.456-28.672 28.672-19.456 34.816-7.168q36.864 0 62.976 26.624t26.112 63.488-26.112 62.976-62.976 26.112z" transform="translate(0, 812) scale(1, -1)"/>
</svg>
