<?xml version="1.0" encoding="utf-8"?>
<!DOCTYPE svg PUBLIC "-//W3C//DTD SVG 1.1//EN" "http://www.w3.org/Graphics/SVG/1.1/DTD/svg11.dtd">
<svg version="1.1" id="图形" xmlns="http://www.w3.org/2000/svg" xmlns:xlink="http://www.w3.org/1999/xlink" x="0px" y="0px" width="1024px" height="1024px" viewBox="0 0 1024 1024" enable-background="new 0 0 1024 1024" xml:space="preserve">
  <path fill="#ffffff" d="M644.843243 357.328185q11.861004 0 28.466409 7.907336t34.792278 15.419305 35.583012 10.279537 31.629344-8.698069 22.931274-40.72278 8.698069-85.399228l0-357.411583q0-22.931274-10.279537-43.094981t-28.466409-35.187645-43.490347-23.722008-55.351351-8.698069l-327.363707 0q-22.140541 0-43.094981 8.698069t-37.164479 23.722008-26.094208 35.187645-9.88417 43.094981l0 357.411583q1.581467 55.351351 11.07027 84.213127t24.512741 39.932046 32.815444 9.093436 35.187645-9.093436 32.02471-15.023938 23.326641-7.907336l21.349807 0q7.907336 0 14.628571 3.953668t11.465637 10.279537 7.116602 13.442471 2.372201 13.442471l0 219.823938-7.116602 0q-10.279537 0-17.396139 6.325869t-7.116602 15.023938 7.116602 15.023938 17.396139 6.325869l7.116602 0 0 13.442471-7.116602 0q-10.279537 0-17.396139 6.325869t-7.116602 15.023938 7.116602 15.023938 17.396139 6.325869l7.116602 0 0 6.325869q0 1.581467 0.395367 3.558301t0.395367 3.558301l-7.907336 0q-10.279537 0-17.396139 6.325869t-7.116602 15.023938 7.116602 15.023938 17.396139 6.325869l14.233205 0q7.907336 20.559073 30.443243 29.65251t69.979923 9.093436q36.373745 0 55.351351-5.139768t27.280309-16.210039 9.488803-27.675676 1.1861-39.53668l0-55.351351q0-23.722008-8.302703-33.606178t-18.582239-16.210039-18.186873-14.233205-6.325869-27.675676l0-177.915058q0-14.233205 11.465637-27.675676t24.908108-13.442471l17.396139 0zM613.2139-72.040154q0 11.861004-9.88417 20.559073t-23.326641 8.698069l-126.517375 0q-14.233205 0-24.117375-8.698069t-9.88417-20.559073l0-1.581467q0-11.861004 9.88417-20.559073t24.117375-8.698069l126.517375 0q13.442471 0 23.326641 8.698069t9.88417 20.559073l0 1.581467zM519.116602-0.083398q27.675676 0 52.188417 10.674903t42.699614 28.861776 28.861776 43.094981 10.674903 52.583784-10.674903 52.188417-28.861776 42.699614-42.699614 28.861776-52.188417 10.674903-51.79305-10.674903-42.304247-28.861776-28.861776-42.699614-10.674903-52.188417 10.674903-52.583784 28.861776-43.094981 42.304247-28.861776 51.79305-10.674903zM519.116602 228.43861q18.977606 0 35.978378-7.511969t29.65251-20.163707 20.163707-29.65251 7.511969-35.978378-7.511969-35.978378-20.163707-29.65251-29.65251-20.163707-35.978378-7.511969-35.978378 7.511969-29.257143 20.163707-19.76834 29.65251-7.511969 35.978378 7.511969 35.978378 19.76834 29.65251 29.257143 20.163707 35.978378 7.511969z" transform="translate(0, 812) scale(1, -1)"/>
</svg>
