<?xml version="1.0" encoding="utf-8"?>
<!DOCTYPE svg PUBLIC "-//W3C//DTD SVG 1.1//EN" "http://www.w3.org/Graphics/SVG/1.1/DTD/svg11.dtd">
<svg version="1.1" id="图形" xmlns="http://www.w3.org/2000/svg" xmlns:xlink="http://www.w3.org/1999/xlink" x="0px" y="0px" width="1024px" height="1024px" viewBox="0 0 1024 1024" enable-background="new 0 0 1024 1024" xml:space="preserve">
  <path fill="#ffffff" d="M923.648 579.552q0-25.6-24.064-47.616t-66.048-38.4-97.792-25.6-120.32-9.216-120.832 9.216-98.304 25.6-66.56 38.4-24.576 47.616 24.064 47.616 66.048 38.912 98.304 26.624 120.832 9.728 120.832-9.728 98.304-26.624 66.048-38.912 24.064-47.616zM615.424 629.728q-38.912 0-65.536-13.312t-26.624-31.744 26.624-31.232 65.536-12.8q37.888 0 65.024 12.8t27.136 31.232-27.136 31.744-65.024 13.312zM306.176 497.632q28.672-22.528 72.704-40.96 37.888-15.36 95.744-28.16t139.776-12.8q82.944 0 141.312 12.8t96.256 28.16q43.008 18.432 71.68 40.96l0-477.184q0-14.336-16.896-33.28t-52.736-36.352-91.648-29.184-133.632-11.776q-78.848 0-139.264 10.24t-101.376 26.112-61.952 35.84-20.992 38.4l0 258.048q0 99.328 1.024 219.136zM256 487.392l-183.296 0 79.872-233.472-79.872-233.472 183.296 0 0 466.944z" transform="translate(0, 812) scale(1, -1)"/>
</svg>
