<?xml version="1.0" encoding="utf-8"?>
<!DOCTYPE svg PUBLIC "-//W3C//DTD SVG 1.1//EN" "http://www.w3.org/Graphics/SVG/1.1/DTD/svg11.dtd">
<svg version="1.1" id="图形" xmlns="http://www.w3.org/2000/svg" xmlns:xlink="http://www.w3.org/1999/xlink" x="0px" y="0px" width="1024px" height="1024px" viewBox="0 0 1024 1024" enable-background="new 0 0 1024 1024" xml:space="preserve">
  <path fill="#ffffff" d="M892.928 684q28.672 0 48.64-19.968t19.968-48.64l0-52.224q0-28.672-19.968-48.64t-48.64-19.968l-759.808 0q-28.672 0-48.64 19.968t-19.968 48.64l0 52.224q0 28.672 19.968 48.64t48.64 19.968l759.808 0zM892.928 363.488q28.672 0 48.64-19.968t19.968-48.64l0-52.224q0-28.672-19.968-48.64t-48.64-19.968l-759.808 0q-28.672 0-48.64 19.968t-19.968 48.64l0 52.224q0 28.672 19.968 48.64t48.64 19.968l759.808 0zM892.928 42.976q28.672 0 48.64-19.968t19.968-48.64l0-52.224q0-28.672-19.968-48.64t-48.64-19.968l-759.808 0q-28.672 0-48.64 19.968t-19.968 48.64l0 52.224q0 28.672 19.968 48.64t48.64 19.968l759.808 0z" transform="translate(0, 812) scale(1, -1)"/>
</svg>
