<?xml version="1.0" encoding="utf-8"?>
<!DOCTYPE svg PUBLIC "-//W3C//DTD SVG 1.1//EN" "http://www.w3.org/Graphics/SVG/1.1/DTD/svg11.dtd">
<svg version="1.1" id="图形" xmlns="http://www.w3.org/2000/svg" xmlns:xlink="http://www.w3.org/1999/xlink" x="0px" y="0px" width="1024px" height="1024px" viewBox="0 0 1024 1024" enable-background="new 0 0 1024 1024" xml:space="preserve">
  <path fill="#ffffff" d="M358.4 480.224q22.528 28.672 49.152 50.176 22.528 18.432 50.176 33.792t57.344 13.312q43.008-3.072 71.68-19.968t45.568-43.008 23.04-58.88 4.096-66.56-12.8-64.512-26.624-57.856-34.304-49.664-36.864-40.96q-27.648-28.672-58.88-54.784t-58.88-46.08-49.664-31.744-32.256-11.776q-11.264 0-31.232 12.288t-45.056 32.768-52.736 46.592-55.296 52.736q-17.408 16.384-38.912 38.4t-40.448 48.128-32.256 57.344-14.336 67.072q-3.072 71.68 33.792 122.88t103.424 65.536q32.768 6.144 65.536-7.68t59.392-33.28q30.72-22.528 57.344-54.272zM635.904 577.504q13.312 0 25.6-1.024 11.264-1.024 23.04-3.072t20.992-6.144 19.456-10.752 19.456-12.8l20.48-16.384q6.144 6.144 13.312 11.264 6.144 5.12 15.36 10.752t21.504 12.8 28.16 10.752 32.768 2.56 33.28-6.656 27.648-17.92q31.744-33.792 37.888-66.048t-1.536-60.416-23.04-49.664-27.648-33.792q-23.552-23.552-44.544-40.96t-51.712-39.936q-16.384-11.264-34.304-19.456t-27.136-8.192-19.968 8.192-26.112 20.48q-6.144 5.12-13.312 11.264t-12.288 11.264l-12.288 12.288q11.264 20.48 18.432 46.08 6.144 21.504 9.216 50.688t-3.072 62.976q-7.168 32.768-18.432 55.808t-22.528 37.376q-13.312 17.408-28.672 28.672z" transform="translate(0, 812) scale(1, -1)"/>
</svg>
