<?xml version="1.0" encoding="utf-8"?>
<!DOCTYPE svg PUBLIC "-//W3C//DTD SVG 1.1//EN" "http://www.w3.org/Graphics/SVG/1.1/DTD/svg11.dtd">
<svg version="1.1" id="图形" xmlns="http://www.w3.org/2000/svg" xmlns:xlink="http://www.w3.org/1999/xlink" x="0px" y="0px" width="1024px" height="1024px" viewBox="0 0 1024 1024" enable-background="new 0 0 1024 1024" xml:space="preserve">
  <path fill="#ffffff" d="M935.44334 21.097416q5.089463-15.26839 7.634195-39.188867t2.544732-47.840954-3.562624-45.296223-10.687873-32.572565q-5.089463-7.125249-29.00994-15.26839t-58.528827-15.777336-77.868787-14.250497-86.011928-11.705765-82.95825-8.143141-69.725646-3.053678q-44.787276 0-105.860835 6.616302t-119.093439 15.777336-101.789264 18.831014-52.930417 16.795229q-11.196819 8.143141-16.795229 49.87674t4.580517 106.878728q6.107356 37.662028 30.536779 57.001988t57.510934 30.536779 68.198807 20.357853 61.582505 26.465209q21.375746 13.232604 33.081511 25.447316t16.286282 24.429423 4.580517 25.447316-1.017893 28.500994q-2.035785 24.429423-15.777336 37.662028t-31.045726 27.483101q-8.143141 7.125249-14.250497 19.848907t-11.196819 25.956262q-5.089463 15.26839-10.178926 31.554672-7.125249 2.035785-14.250497 7.125249-6.107356 5.089463-13.232604 14.250497t-12.214712 26.465209-3.562624 31.045726 5.59841 23.920477q4.071571 11.196819 12.214712 21.375746-1.017893 38.67992 4.071571 77.359841 4.071571 32.572565 14.759443 69.2167t31.045726 66.163022q19.33996 27.483101 43.260437 45.296223t48.349901 27.992048 49.367793 14.250497 48.349901 4.071571q29.518887 0 56.493042-7.125249t50.385686-18.322068 41.733598-24.93837 29.518887-27.992048q25.447316-32.572565 38.170974-71.761431t17.813121-73.797217q6.107356-40.715706 5.089463-81.431412 7.125249-4.071571 11.196819-12.214712 4.071571-7.125249 6.616302-18.322068t0.508946-27.483101q-3.053678-21.375746-9.66998-34.099404t-14.759443-19.848907q-9.161034-8.143141-19.33996-11.196819-4.071571-16.286282-9.161034-31.554672-5.089463-13.232604-11.705765-25.956262t-14.759443-19.848907q-9.161034-8.143141-17.304175-13.741551t-14.250497-11.705765-10.178926-14.759443-6.107356-20.866799q-3.053678-15.26839-2.035785-31.045726t8.143141-31.554672 23.411531-30.027833 43.769384-25.447316q25.447316-10.178926 55.475149-17.813121t58.019881-18.322068 49.87674-26.974155 31.045726-42.751491zM544.572565-145.836978q5.089463 0 15.777336 6.616302t20.866799 15.777336 17.813121 18.322068 7.634195 14.250497q0 6.107356-3.053678 21.375746t-7.125249 33.590457-8.143141 36.135189-7.125249 29.00994q10.178926 8.143141 17.304175 17.813121t7.125249 19.848907q0 8.143141-5.59841 16.795229t-12.723658 14.759443q-8.143141 7.125249-17.304175 14.250497l-50.894632 0q-10.178926-7.125249-17.304175-14.250497-6.107356-6.107356-11.196819-14.250497t-5.089463-16.286282q0-6.107356 7.634195-16.286282t18.831014-19.33996q-3.053678-9.161034-8.143141-26.465209t-9.66998-36.135189-8.143141-35.626243-3.562624-24.93837q0-5.089463 7.634195-14.250497t18.322068-18.322068 20.866799-15.777336 15.26839-6.616302z" transform="translate(0, 812) scale(1, -1)"/>
</svg>
