<?xml version="1.0" encoding="utf-8"?>
<!DOCTYPE svg PUBLIC "-//W3C//DTD SVG 1.1//EN" "http://www.w3.org/Graphics/SVG/1.1/DTD/svg11.dtd">
<svg version="1.1" id="图形" xmlns="http://www.w3.org/2000/svg" xmlns:xlink="http://www.w3.org/1999/xlink" x="0px" y="0px" width="1024px" height="1024px" viewBox="0 0 1024 1024" enable-background="new 0 0 1024 1024" xml:space="preserve">
  <path fill="#ffffff" d="M512 812q105.472 0 198.656-40.448t162.304-109.568 109.568-162.304 40.448-198.656-40.448-198.656-109.568-162.304-162.304-109.568-198.656-40.448q-70.656 0-136.192 18.432t-122.368 51.712-103.424 79.872-79.872 103.424-51.712 121.856-18.432 135.68 18.432 135.68 51.712 121.856 79.872 103.424 103.424 79.872 122.368 51.712 136.192 18.432zM278.528 207.84q38.912 0 66.048 27.136t27.136 66.048-27.136 66.048-66.048 27.136q-37.888 0-65.024-27.136t-27.136-66.048 27.136-66.048 65.024-27.136zM512-23.584q38.912 0 66.048 26.624t27.136 65.536-27.136 65.536-66.048 26.624q-19.456 0-36.352-7.168t-29.696-19.456-19.968-29.184-7.168-36.352 7.168-36.352 19.968-29.184 29.696-19.456 36.352-7.168zM464.896 301.024q0-19.456 13.312-33.28t33.792-13.824q19.456 0 32.768 13.824t13.312 33.28-13.312 32.768-32.768 13.312q-20.48 0-33.792-13.312t-13.312-32.768zM512 440.288q38.912 0 66.048 27.136t27.136 66.048-27.136 65.536-66.048 26.624q-19.456 0-36.352-7.168t-29.696-19.456-19.968-29.184-7.168-36.352 7.168-36.352 19.968-29.696 29.696-19.968 36.352-7.168zM744.448 207.84q37.888 0 65.024 27.136t27.136 66.048-27.136 66.048-65.024 27.136q-38.912 0-66.048-27.136t-27.136-66.048 27.136-66.048 66.048-27.136z" transform="translate(0, 812) scale(1, -1)"/>
</svg>
