<?xml version="1.0" encoding="utf-8"?>
<!DOCTYPE svg PUBLIC "-//W3C//DTD SVG 1.1//EN" "http://www.w3.org/Graphics/SVG/1.1/DTD/svg11.dtd">
<svg version="1.1" id="图形" xmlns="http://www.w3.org/2000/svg" xmlns:xlink="http://www.w3.org/1999/xlink" x="0px" y="0px" width="1024px" height="1024px" viewBox="0 0 1024 1024" enable-background="new 0 0 1024 1024" xml:space="preserve">
  <path fill="#ffffff" d="M419.84 765.92l93.184 0 0-372.736q0-9.216-10.752-17.92t-26.112-15.36-31.232-10.24-25.088-3.584l0-512q0-19.456-13.824-32.768t-33.28-13.312l-93.184 0q-19.456 0-32.768 13.312t-13.312 32.768l0 512q-9.216 0-25.088 3.584t-31.232 10.24-26.112 15.36-10.752 17.92l0 372.736 93.184 0 0-326.656 46.08 0 0 326.656 93.184 0 0-326.656 47.104 0 0 326.656zM745.472 765.92q139.264 0 139.264-140.288l0-791.552q0-19.456-13.312-32.768t-32.768-13.312l-93.184 0q-19.456 0-33.28 13.312t-13.824 32.768l0 372.736-92.16 0 0 418.816q0 140.288 139.264 140.288z" transform="translate(0, 812) scale(1, -1)"/>
</svg>
