<?xml version="1.0" encoding="utf-8"?>
<!DOCTYPE svg PUBLIC "-//W3C//DTD SVG 1.1//EN" "http://www.w3.org/Graphics/SVG/1.1/DTD/svg11.dtd">
<svg version="1.1" id="图形" xmlns="http://www.w3.org/2000/svg" xmlns:xlink="http://www.w3.org/1999/xlink" x="0px" y="0px" width="1024px" height="1024px" viewBox="0 0 1024 1024" enable-background="new 0 0 1024 1024" xml:space="preserve">
  <path fill="#ffffff" d="M792.576 812q19.456 0 36.352-7.168t29.696-19.968 19.968-29.696 7.168-36.352l0-837.632q0-38.912-27.136-66.048t-66.048-27.136l-559.104 0q-38.912 0-66.048 27.136t-27.136 66.048l0 837.632q0 19.456 7.168 36.352t19.968 29.696 29.696 19.968 36.352 7.168l559.104 0zM419.84 718.816l185.344 0 0 47.104-185.344 0 0-47.104zM512-164.896q19.456 0 36.352 7.168t29.696 19.968 19.968 29.696 7.168 36.352-7.168 36.352-19.968 29.184-29.696 19.456-36.352 7.168q-38.912 0-65.536-26.624t-26.624-65.536 26.624-66.048 65.536-27.136zM792.576 672.736l-559.104 0 0-605.184 559.104 0 0 605.184z" transform="translate(0, 812) scale(1, -1)"/>
</svg>
