<?xml version="1.0" encoding="utf-8"?>
<!DOCTYPE svg PUBLIC "-//W3C//DTD SVG 1.1//EN" "http://www.w3.org/Graphics/SVG/1.1/DTD/svg11.dtd">
<svg version="1.1" id="图形" xmlns="http://www.w3.org/2000/svg" xmlns:xlink="http://www.w3.org/1999/xlink" x="0px" y="0px" width="1024px" height="1024px" viewBox="0 0 1024 1024" enable-background="new 0 0 1024 1024" xml:space="preserve">
  <path fill="#ffffff" d="M267.023923 691.47177q-7.839234 6.85933-13.228708 16.168421t-7.839234 19.598086 0 20.57799 10.288995 19.108134q8.819139 8.819139 15.678469 7.839234t15.188517-4.899522 20.088038-8.819139 29.397129-4.899522q15.678469 0 24.98756 8.819139t17.638278 19.108134 18.12823 19.108134 26.457416 8.819139 25.967464-8.819139 17.148325-19.108134 18.12823-18.618182 27.927273-8.329187q14.698565 0 24.007656 8.329187t18.12823 18.618182 19.108134 19.108134 26.947368 8.819139 26.457416-8.819139 17.638278-19.108134 17.148325-19.108134 25.967464-8.819139q17.638278 0 28.907177 4.899522t19.598086 8.819139 15.188517 4.899522 15.678469-7.839234q7.839234-8.819139 9.799043-19.108134t0-20.57799-7.839234-19.598086-12.738756-16.168421q-7.839234-6.85933-24.007656-23.517703t-32.826794-34.296651q-19.598086-20.57799-41.155981-44.095694l-146.005742 0-147.96555 0q-22.537799 23.517703-41.155981 44.095694-16.658373 17.638278-32.826794 34.296651t-24.007656 23.517703zM689.362679 545.466029q74.472727-42.135885 133.266986-100.930144 24.497608-25.477512 48.995215-56.344498t43.115789-68.593301 30.377033-81.332057 11.758852-93.580861q0-83.291866-25.477512-148.945455t-79.862201-111.709091-138.166507-70.55311-200.390431-24.497608q-117.588517 0-201.860287 24.497608t-138.656459 70.55311-79.862201 111.709091-25.477512 148.945455q0 49.97512 11.2689 93.580861t30.377033 81.332057 42.625837 68.593301 48.995215 56.344498q58.794258 58.794258 134.24689 100.930144l354.725359 0zM734.438278 233.856459l-123.467943 0 78.392344 104.849761-36.256459 27.437321-79.372249-105.829665 35.276555-26.457416-150.905263 0 37.236364 27.437321-79.372249 106.809569-37.236364-27.437321 79.372249-106.809569-123.467943 0 0-44.095694 178.342584 0 0-89.171292-178.342584 0 0-45.075598 178.342584 0 0-89.171292 43.115789 0 0 89.171292 178.342584 0 0 45.075598-178.342584 0 0 89.171292 178.342584 0 0 44.095694z" transform="translate(0, 812) scale(1, -1)"/>
</svg>
