<?xml version="1.0" encoding="utf-8"?>
<!DOCTYPE svg PUBLIC "-//W3C//DTD SVG 1.1//EN" "http://www.w3.org/Graphics/SVG/1.1/DTD/svg11.dtd">
<svg version="1.1" id="图形" xmlns="http://www.w3.org/2000/svg" xmlns:xlink="http://www.w3.org/1999/xlink" x="0px" y="0px" width="1028px" height="1024px" viewBox="0 0 1028 1024" enable-background="new 0 0 1028 1024" xml:space="preserve">
  <path fill="#ffffff" d="M34.304 168.928q-32.768 34.816-36.864 63.488t24.576 58.368q4.096 4.096 13.312 12.288t19.456 16.896 19.456 16.896 13.312 12.288q26.624 23.552 52.224 19.968t44.032-24.064q10.24-11.264 27.136-28.16t34.304-35.328 33.792-34.816 25.6-26.624q20.48-20.48 47.616-15.872t50.688 28.16q22.528 22.528 54.784 56.32t70.144 73.216 78.848 82.432 79.872 83.456 73.728 76.288 61.44 62.464q14.336 14.336 29.184 26.624t30.208 18.944 31.232 5.632 32.256-11.264q2.048-2.048 11.776-10.752t20.992-18.944l20.48-20.48 11.264-12.288q14.336-14.336 15.36-30.208t-5.12-31.744-16.896-30.208-20.992-24.576q-31.744-31.744-78.848-79.36t-100.352-102.4-110.592-113.152-110.08-112.64-98.304-100.864-76.288-76.288q-12.288-12.288-31.232-18.944t-39.424-7.168-40.448 4.608-33.28 17.408q-27.648 24.576-58.88 55.296t-61.952 62.464-58.368 60.928-49.152 51.712z" transform="translate(0, 812) scale(1, -1)"/>
</svg>
