<?xml version="1.0" encoding="utf-8"?>
<!DOCTYPE svg PUBLIC "-//W3C//DTD SVG 1.1//EN" "http://www.w3.org/Graphics/SVG/1.1/DTD/svg11.dtd">
<svg version="1.1" id="图形" xmlns="http://www.w3.org/2000/svg" xmlns:xlink="http://www.w3.org/1999/xlink" x="0px" y="0px" width="1024px" height="1024px" viewBox="0 0 1024 1024" enable-background="new 0 0 1024 1024" xml:space="preserve">
  <path fill="#ffffff" d="M937.129984-19.182848 703.630336 214.294272c40.155136 57.250816 63.930368 126.80704 63.930368 201.910272 0 194.435072-158.186496 352.61952-352.621568 352.61952-194.434048 0-352.61952-158.184448-352.61952-352.61952 0-194.475008 158.185472-352.642048 352.61952-352.642048 64.980992 0 125.717504 17.978368 178.054144 48.726016 0.418816-0.420864 0.671744-0.923648 1.134592-1.344512l236.56448-236.56448c14.700544-14.700544 33.94048-22.093824 53.219328-22.093824s38.516736 7.39328 53.219328 22.093824C966.530048-96.217344 966.530048-48.583936 937.129984-19.182848zM191.353856 416.205568c0 123.280384 100.303872 223.58528 223.584256 223.58528 123.281408 0 223.587328-100.304896 223.587328-223.58528 0-123.321344-100.30592-223.627264-223.587328-223.627264C291.657728 192.57728 191.353856 292.884224 191.353856 416.205568z" transform="translate(0, 812) scale(1, -1)"/>
</svg>
