<?xml version="1.0" encoding="utf-8"?>
<!DOCTYPE svg PUBLIC "-//W3C//DTD SVG 1.1//EN" "http://www.w3.org/Graphics/SVG/1.1/DTD/svg11.dtd">
<svg version="1.1" id="图形" xmlns="http://www.w3.org/2000/svg" xmlns:xlink="http://www.w3.org/1999/xlink" x="0px" y="0px" width="1024px" height="1024px" viewBox="0 0 1024 1024" enable-background="new 0 0 1024 1024" xml:space="preserve">
  <path fill="#ffffff" d="M842.752 482.272q-24.576-2.048-50.176-13.312-22.528-10.24-48.64-30.72t-51.712-56.32q-23.552-34.816-45.056-66.56t-41.472-64-39.936-66.048-40.448-72.704q-26.624-49.152-70.144-71.68t-103.936-23.552q-36.864 0-73.216 6.144t-69.632 18.432-61.952 29.696-49.152 39.936q-54.272 59.392-53.76 105.984t54.784 70.144q24.576 11.264 50.688 17.92t47.616 10.752q25.6 4.096 49.152 6.144 14.336-17.408 36.864-28.672 19.456-10.24 48.64-15.872t71.168 1.536q33.792 5.12 59.904 18.944t49.152 34.304 45.056 47.104 46.592 57.344q16.384 19.456 37.888 49.664t44.032 63.488 45.056 67.072 39.936 61.44q18.432 28.672 34.304 46.592t29.696 27.648 26.624 12.8 25.088 3.072q8.192 0 24.064-15.36t31.232-40.448 27.648-56.832 12.288-64.512q0-27.648-4.096-45.568t-9.728-32.256-10.752-27.648-7.168-31.744q-1.024-13.312-3.584-48.64t-5.632-81.408-6.656-97.28-6.144-95.744-4.608-76.8-2.048-39.424l-39.936 0-1.024 307.2q0 34.816 1.024 64.512t-1.536 50.688-10.752 32.768-25.6 11.776z" transform="translate(0, 812) scale(1, -1)"/>
</svg>
