<?xml version="1.0" encoding="utf-8"?>
<!DOCTYPE svg PUBLIC "-//W3C//DTD SVG 1.1//EN" "http://www.w3.org/Graphics/SVG/1.1/DTD/svg11.dtd">
<svg version="1.1" id="图形" xmlns="http://www.w3.org/2000/svg" xmlns:xlink="http://www.w3.org/1999/xlink" x="0px" y="0px" width="1024px" height="1024px" viewBox="0 0 1024 1024" enable-background="new 0 0 1024 1024" xml:space="preserve">
  <path fill="#ffffff" d="M495.616 361.44q8.192-6.144 26.624-7.68t40.96-0.512 47.616 2.048 46.592-1.024 37.888-8.704 21.504-20.992-3.584-28.16-26.112-26.624-39.424-25.6-41.984-25.088-34.816-24.576-17.92-23.552q-3.072-12.288 1.024-31.232t11.776-41.472 15.872-46.08 12.8-44.032 3.584-36.352-11.264-23.04q-11.264-7.168-26.112-1.536t-31.744 17.408-35.84 27.648-36.864 30.208-34.816 24.576-31.232 10.24q-21.504 0-49.152-19.968t-56.32-42.496-54.272-36.352-41.984-1.536q-11.264 8.192-11.264 24.064t6.144 36.352 16.384 43.008 18.432 44.032 12.8 40.96 0.512 32.768-18.944 26.624-34.304 26.624-39.936 26.624-36.352 26.624-24.576 26.624-3.584 26.624 20.992 18.432 36.864 6.144 46.08-0.512 48.128-3.072 41.984-0.512 29.184 7.168q15.36 9.216 27.648 41.472t24.064 67.584 24.064 62.976 27.648 27.648q10.24 0 18.944-13.312t16.384-33.792 14.848-45.056 14.336-47.104 14.848-40.448 15.872-24.064zM885.76 580.576q6.144-5.12 24.064-4.608t37.376 1.024 35.84-2.56 20.48-14.336-8.192-22.016-29.184-20.48-32.256-19.456-17.408-18.944q-3.072-9.216 2.56-27.136t11.776-36.352 9.216-33.792-6.144-21.504q-9.216-5.12-22.528 3.072t-27.648 20.48-28.672 23.552-25.6 11.264-26.112-10.752-29.696-22.528-28.672-19.456-23.04-0.512q-9.216 6.144-5.12 21.504t11.776 32.768 13.824 34.816 3.072 27.648q-4.096 10.24-18.944 20.992t-30.72 21.504-27.136 21.504-7.168 20.992 19.968 12.288 34.816 1.024 36.864-2.048 26.112 4.096 14.848 22.016 12.8 35.328 12.8 33.28 14.848 14.848 14.848-14.848 12.288-33.792 11.264-36.352 12.8-22.528z" transform="translate(0, 812) scale(1, -1)"/>
</svg>
