<?xml version="1.0" encoding="utf-8"?>
<!DOCTYPE svg PUBLIC "-//W3C//DTD SVG 1.1//EN" "http://www.w3.org/Graphics/SVG/1.1/DTD/svg11.dtd">
<svg version="1.1" id="图形" xmlns="http://www.w3.org/2000/svg" xmlns:xlink="http://www.w3.org/1999/xlink" x="0px" y="0px" width="1026px" height="1024px" viewBox="0 0 1026 1024" enable-background="new 0 0 1026 1024" xml:space="preserve">
  <path fill="#ffffff" d="M1025.024 31.712l-128 0 0-59.392q0-26.624-18.432-45.056t-45.056-18.432l-64.512 0q-26.624 0-45.056 18.432t-18.432 45.056l0 59.392-384 0 0-59.392q0-26.624-18.944-45.056t-45.568-18.432l-64.512 0q-26.624 0-45.056 18.432t-18.432 45.056l0 59.392-129.024 0 0 201.728q0 57.344 36.352 89.088t91.648 35.84q4.096 17.408 12.8 47.104t18.432 64 20.48 68.608 19.968 60.928q27.648 77.824 115.712 77.824l397.312 0q39.936 0 65.536-22.016t35.84-51.712l21.504-63.488q11.264-34.816 23.04-69.632t22.016-65.024 16.384-46.592q55.296-5.12 91.648-36.864t36.352-88.064l0-201.728zM125.952 163.808q26.624 0 45.568 18.432t18.944 45.056-18.944 45.568-45.568 18.944-45.056-18.944-18.432-45.568 18.432-45.056 45.056-18.432zM793.6 357.344l-37.888 187.392-487.424 0-33.792-187.392 559.104 0zM896 163.808q26.624 0 46.08 19.456t19.456 46.08q0 27.648-19.456 46.592t-46.08 18.944q-27.648 0-46.592-18.944t-18.944-46.592q0-26.624 18.944-46.08t46.592-19.456z" transform="translate(0, 812) scale(1, -1)"/>
</svg>
