<?xml version="1.0" encoding="utf-8"?>
<!DOCTYPE svg PUBLIC "-//W3C//DTD SVG 1.1//EN" "http://www.w3.org/Graphics/SVG/1.1/DTD/svg11.dtd">
<svg version="1.1" id="图形" xmlns="http://www.w3.org/2000/svg" xmlns:xlink="http://www.w3.org/1999/xlink" x="0px" y="0px" width="1024px" height="1024px" viewBox="0 0 1024 1024" enable-background="new 0 0 1024 1024" xml:space="preserve">
  <path fill="#ffffff" d="M512 812q105.472 0 199.168-40.448t162.816-109.568 109.568-162.816 40.448-199.168-40.448-198.656-109.568-162.304-162.816-109.568-199.168-40.448q-70.656 0-136.192 18.432t-122.368 51.712-103.424 79.872-79.872 103.424-51.712 121.856-18.432 135.68 18.432 136.192 51.712 122.368 79.872 103.424 103.424 79.872 122.368 51.712 136.192 18.432zM744.448 346.08l-186.368 0 0 186.368-92.16 0 0-186.368-186.368 0 0-92.16 186.368 0 0-186.368 92.16 0 0 186.368 186.368 0 0 92.16z" transform="translate(0, 812) scale(1, -1)"/>
</svg>
