<?xml version="1.0" encoding="utf-8"?>
<!DOCTYPE svg PUBLIC "-//W3C//DTD SVG 1.1//EN" "http://www.w3.org/Graphics/SVG/1.1/DTD/svg11.dtd">
<svg version="1.1" id="图形" xmlns="http://www.w3.org/2000/svg" xmlns:xlink="http://www.w3.org/1999/xlink" x="0px" y="0px" width="1024px" height="1024px" viewBox="0 0 1024 1024" enable-background="new 0 0 1024 1024" xml:space="preserve">
  <path fill="#ffffff" d="M816.047666 573.032771q6.101291 5.084409 12.202582 9.151936l10.168818 8.135055q5.084409 4.067527 9.151936 7.118173 10.168818 8.135055 22.879841 6.609732t20.846077-9.660377 9.151936-21.862959-7.118173-21.862959q-3.050645-3.050645-8.643496-8.135055t-10.677259-10.168818q-6.101291-5.084409-13.219464-11.1857 13.219464-16.270109 26.438928-42.709037t24.405164-58.470705 18.303873-67.622642 7.118173-70.164846q0-85.418073-32.540218-160.158888t-87.960278-130.160874-130.160874-87.960278-160.158888-32.540218-160.158888 32.540218-130.160874 87.960278-87.960278 130.160874-32.540218 160.158888 32.540218 160.158888 87.960278 130.160874 130.160874 87.960278 160.158888 32.540218q87.451837 0 162.701092-33.048659t127.110228-86.943396zM527.253227 618.792453q-70.164846 0-131.686197-26.438928t-107.281033-72.19861-72.19861-107.281033-26.438928-131.686197 26.438928-131.686197 72.19861-107.281033 107.281033-72.19861 131.686197-26.438928 131.686197 26.438928 107.281033 72.19861 72.19861 107.281033 26.438928 131.686197-26.438928 131.686197-72.19861 107.281033-107.281033 72.19861-131.686197 26.438928zM595.38431 755.054618q0-14.236346-7.118173-25.930487t-17.286991-19.829196-21.862959-12.202582-21.862959-4.067527q-11.1857 0-23.388282 4.067527t-22.3714 12.202582-16.77855 19.320755-6.609732 26.438928l0 56.945382 137.279047 0 0-56.945382zM545.5571 271.018868q-8.135055-6.101291-17.286991-5.59285t-15.253227 8.643496q-6.101291 7.118173-5.084409 16.270109t9.151936 16.270109l207.443893 175.920556q7.118173 5.084409 17.286991 5.084409t16.270109-7.118173q6.101291-8.135055 5.084409-17.286991t-10.168818-17.286991zM557.759682 560.830189q0-12.202582-8.643496-21.354518t-21.862959-9.151936-22.3714 9.151936-9.151936 21.354518q0 13.219464 9.151936 22.3714t22.3714 9.151936 21.862959-9.151936 8.643496-22.3714zM294.387289 282.204568q0-13.219464-9.151936-22.3714t-22.3714-9.151936-21.862959 9.151936-8.643496 22.3714 8.643496 21.862959 21.862959 8.643496 22.3714-8.643496 9.151936-21.862959zM556.7428 10.69712q0-13.219464-8.643496-22.3714t-21.862959-9.151936-22.3714 9.151936-9.151936 22.3714 9.151936 21.862959 22.3714 8.643496 21.862959-8.643496 8.643496-21.862959zM820.115194 282.204568q0-13.219464-9.151936-22.3714t-21.354518-9.151936q-13.219464 0-22.3714 9.151936t-9.151936 22.3714 9.151936 21.862959 22.3714 8.643496q12.202582 0 21.354518-8.643496t9.151936-21.862959z" transform="translate(0, 812) scale(1, -1)"/>
</svg>
