<?xml version="1.0" encoding="utf-8"?>
<!DOCTYPE svg PUBLIC "-//W3C//DTD SVG 1.1//EN" "http://www.w3.org/Graphics/SVG/1.1/DTD/svg11.dtd">
<svg version="1.1" id="图形" xmlns="http://www.w3.org/2000/svg" xmlns:xlink="http://www.w3.org/1999/xlink" x="0px" y="0px" width="1024px" height="1024px" viewBox="0 0 1024 1024" enable-background="new 0 0 1024 1024" xml:space="preserve">
  <path fill="#ffffff" d="M825.344 746.464q27.648 0 52.736-10.752t43.52-29.184 29.184-43.008 10.752-53.248l0-622.592q0-28.672-10.752-53.248t-29.184-43.008-43.52-29.184-52.736-10.752l-689.152 0q-27.648 0-52.736 10.752t-43.52 29.184-29.184 43.008-10.752 53.248l0 622.592q0 28.672 10.752 53.248t29.184 43.008 43.52 29.184 52.736 10.752l689.152 0zM321.536 249.824q11.264 12.288 24.064 27.136t25.6 30.208 23.552 29.696 18.944 25.6l353.28 2.048 0 60.416-332.8 0 11.264 27.648-61.44 18.432 0 17.408 125.952 0-3.072-60.416 68.608 0 1.024 60.416 193.536 3.072 0 63.488-193.536 0 2.048 65.536-72.704 2.048 4.096-67.584-128 0 2.048 63.488-68.608 0 4.096-63.488-192.512 0 0-65.536 192.512-1.024-3.072-63.488-188.416 0 0-60.416 202.752 0q-38.912-45.056-75.776-83.968-31.744-33.792-67.072-66.56t-61.952-48.128q11.264-12.288 19.456-26.112t16.384-28.16q27.648 20.48 49.152 38.4t45.056 40.448l0-210.944 63.488-2.048zM771.072 300l-319.488-2.048 0-63.488 162.816-1.024-53.248-33.792 0-29.696-177.152 3.072 0-67.584 189.44-1.024 0-40.96q0-2.048-7.68-11.776t-22.016-9.728l-93.184 0-2.048-65.536q14.336-1.024 32.768-1.024l82.944 0q30.72 0 53.76 18.944t23.04 47.616l0 62.464 129.024 1.024 0 66.56-111.616-2.048 0 14.336 112.64 52.224 0 63.488z" transform="translate(0, 812) scale(1, -1)"/>
</svg>
