<?xml version="1.0" encoding="utf-8"?>
<!DOCTYPE svg PUBLIC "-//W3C//DTD SVG 1.1//EN" "http://www.w3.org/Graphics/SVG/1.1/DTD/svg11.dtd">
<svg version="1.1" id="图形" xmlns="http://www.w3.org/2000/svg" xmlns:xlink="http://www.w3.org/1999/xlink" x="0px" y="0px" width="1024px" height="1024px" viewBox="0 0 1024 1024" enable-background="new 0 0 1024 1024" xml:space="preserve">
  <path fill="#ffffff" d="M437.545817 708.988048q-21.418327-18.358566-45.896414-44.876494-20.398406-23.458167-45.896414-58.645418t-50.996016-84.143426q-26.517928-48.956175-39.776892-94.85259t-18.358566-81.593625q-6.119522-41.816733-6.119522-78.533865-10.199203 8.159363-21.418327 14.278884-10.199203 5.099602-23.458167 10.199203t-27.537849 7.139442q-29.577689 4.079681-53.545817-1.52988t-39.266932-14.788845q-14.278884-10.199203-23.458167-11.729084t-9.179283 13.768924q0 34.677291 10.199203 69.864542t24.478088 66.294821 29.067729 55.075697 23.968127 36.207171q45.896414 63.23506 100.462151 101.482072t103.521912 59.665339q56.095618 25.498008 113.211155 36.717131zM558.916335 708.988048q57.115538-10.199203 113.211155-35.697211 47.936255-21.418327 103.521912-60.175299t101.482072-100.972112q9.179283-12.239044 23.458167-36.207171t28.557769-55.075697 24.988048-66.294821 10.709163-69.864542q0-19.378486-9.689243-17.338645t-22.948207 14.278884q-11.219124 9.179283-33.14741 15.298805t-54.565737 3.059761q-15.298805-2.039841-29.067729-7.649402t-24.988048-10.709163q-12.239044-7.139442-23.458167-14.278884-1.01992 37.737052-7.139442 78.533865-6.119522 35.697211-18.868526 81.083665t-39.266932 95.36255q-26.517928 48.956175-51.505976 83.633466t-45.386454 58.135458q-24.478088 26.517928-45.896414 44.876494zM497.721116 812q19.378486 0 30.59761-26.517928 3.059761-8.159363 8.159363-21.418327t10.199203-25.498008q5.099602-14.278884 12.239044-29.577689-12.239044 7.139442-23.458167 13.258964-10.199203 5.099602-20.398406 9.689243t-17.338645 4.589641-17.338645-4.079681-19.378486-9.179283q-11.219124-6.119522-23.458167-14.278884 6.119522 15.298805 11.219124 30.59761 5.099602 12.239044 9.689243 25.498008t7.649402 21.418327q6.119522 14.278884 14.788845 19.888446t16.828685 5.609562zM474.262948 263.282869q8.159363 11.219124 17.848606 12.749004t17.848606-0.50996q9.179283-3.059761 18.358566-9.179283l0-302.916335q0-44.876494-18.868526-73.944223t-72.924303-29.067729q-27.537849 0-45.386454 8.669323t-28.557769 21.418327-14.788845 27.537849-4.079681 27.027888q0 17.338645 10.199203 24.988048t16.318725 8.669323q8.159363 0 18.358566-7.139442t11.219124-20.398406q1.01992-17.338645 8.669323-30.087649t28.047809-12.749004q25.498008 0 31.61753 17.338645t6.119522 46.916335l0 290.677291zM497.721116 708.988048q2.039841 0 5.609562-0.50996t12.749004-8.159363 24.478088-24.988048 41.816733-50.996016 45.386454-66.804781 32.12749-63.23506 21.418327-54.565737 12.239044-40.796813q3.059761-11.219124 8.159363-29.577689t9.179283-37.737052 6.119522-35.187251-2.039841-20.908367q-11.219124-14.278884-22.948207-7.649402t-35.187251 20.908367q-12.239044 7.139442-31.61753 13.258964t-40.796813 10.709163-43.856574 7.139442-40.796813 2.549801q-37.737052 1.01992-79.043825-8.159363t-67.824701-20.398406q-25.498008-11.219124-34.677291-20.398406t-20.398406-6.119522q-13.258964 4.079681-12.749004 32.12749t19.888446 97.40239q12.239044 45.896414 26.007968 79.553785t28.047809 59.665339 28.047809 46.406375 26.007968 37.737052 26.007968 33.657371 26.007968 28.557769 20.908367 19.378486 11.729084 7.139442z" transform="translate(0, 812) scale(1, -1)"/>
</svg>
