<?xml version="1.0" encoding="utf-8"?>
<!DOCTYPE svg PUBLIC "-//W3C//DTD SVG 1.1//EN" "http://www.w3.org/Graphics/SVG/1.1/DTD/svg11.dtd">
<svg version="1.1" id="图形" xmlns="http://www.w3.org/2000/svg" xmlns:xlink="http://www.w3.org/1999/xlink" x="0px" y="0px" width="1024px" height="1024px" viewBox="0 0 1024 1024" enable-background="new 0 0 1024 1024" xml:space="preserve">
  <path fill="#ffffff" d="M592.572033 569.264003q11.218891 24.47758 21.927832 43.855663t23.45768 34.166621 29.577075 23.96763 41.305916 12.23879q35.69647 5.099496 67.313344-2.039798t55.074554-17.338286q27.537277-11.218891 50.994957-28.557176 22.437781-23.45768 30.596974-52.014857t6.629344-58.644201-11.218891-60.17405-21.927832-55.584504-24.987529-45.895462-20.907933-30.596974q-11.218891-14.278588-11.218891-23.45768t3.059697-15.298487q4.079597-7.139294 12.23879-12.23879 5.099496-4.079597 11.218891-8.159193 11.218891-8.159193 28.557176-22.437781 9.179092-8.159193 6.629344-28.557176t-8.669143-40.795966q-7.139294-24.47758-19.378084-52.014857-15.298487-28.557176-30.596974-54.054655-13.258689-22.437781-27.027327-44.365613t-23.96763-33.146722q-9.179092-11.218891-23.45768-18.868134t-30.596974-10.198991-32.126823 1.529849-28.047227 16.318386q-9.179092 8.159193-18.358185 3.059697t-17.338286-15.298487q-9.179092-11.218891-17.338286-30.596974-4.079597-19.378084-16.318386-39.776067-11.218891-17.338286-31.106924-39.266117t-55.584504-45.385512q-32.636773-21.417882-78.022285-28.047227t-91.280974-1.019899-86.181478 22.437781-61.703898 43.345714q-24.47758 30.596974-35.69647 58.644201t-11.72884 53.544705 6.119395 46.915361 16.828336 37.736269q7.139294 12.23879 20.907933 26.007428t29.577075 26.007428 32.636773 21.927832 29.067126 13.768639q11.218891 3.059697 14.278588 10.198991t2.039798 14.278588q-1.019899 8.159193-6.119395 18.358185-12.23879 11.218891-16.318386 24.47758-5.099496 11.218891-3.059697 27.027327t16.318386 35.186521q33.656672 42.835764 64.763596 79.042184t51.504907 62.723798q17.338286 23.45768 40.286016 23.45768t43.345714-13.258689q10.198991-7.139294 19.378084-4.079597t15.298487 9.179092q7.139294 7.139294 13.258689 18.358185 8.159193 18.358185 21.927832 48.44521t34.166621 74.962587zM586.452638 376.503064q-6.119395-17.338286-23.96763-50.485008t-43.345714-70.373041-57.114352-72.922789-65.273546-58.134251-52.524806-37.736269-27.537277-26.007428-10.708941-18.358185-2.039798-14.788538q0-9.179092 3.569647-22.947731t14.788538-26.517378 32.636773-21.927832 56.094453-10.198991 60.17405 9.179092 43.345714 24.987529 29.067126 30.087025 16.318386 24.47758q3.059697 6.119395 14.788538 26.007428t27.537277 47.93526 35.69647 60.683999 39.776067 64.763596 38.246218 60.683999 31.616874 46.915361q20.397983 27.537277 32.126823 58.134251t12.23879 58.134251-12.23879 48.955159-40.286016 32.636773q-23.45768 8.159193-42.835764 2.039798t-35.69647-21.417882-28.557176-36.716369-21.417882-42.325815-15.298487-38.756168-9.179092-26.007428z" transform="translate(0, 812) scale(1, -1)"/>
</svg>
