<?xml version="1.0" encoding="utf-8"?>
<!DOCTYPE svg PUBLIC "-//W3C//DTD SVG 1.1//EN" "http://www.w3.org/Graphics/SVG/1.1/DTD/svg11.dtd">
<svg version="1.1" id="图形" xmlns="http://www.w3.org/2000/svg" xmlns:xlink="http://www.w3.org/1999/xlink" x="0px" y="0px" width="1024px" height="1024px" viewBox="0 0 1024 1024" enable-background="new 0 0 1024 1024" xml:space="preserve">
  <path fill="#ffffff" d="M932.207171 19.521912q5.099602-15.298805 8.159363-38.756972t3.059761-47.426295-3.569721-45.386454-10.709163-32.63745q-5.099602-7.139442-28.557769-14.788845t-58.645418-15.298805-78.023904-14.788845-86.183267-12.239044-83.123506-7.649402-69.354582-2.549801-67.314741 3.059761-78.023904 7.649402-79.553785 10.709163-71.394422 12.749004-54.565737 12.239044-28.557769 10.709163q-10.199203 8.159363-15.808765 49.466135t4.589641 107.601594q6.119522 36.717131 30.59761 56.095618t57.115538 30.59761 67.824701 20.398406 61.705179 26.517928q19.378486 12.239044 30.59761 23.458167t16.318725 21.928287 6.629482 21.928287 0.50996 24.478088l-89.752988 12.239044q-18.358566 13.258964-32.63745 38.756972-12.239044 21.418327-21.928287 58.645418t-9.689243 96.38247q0 48.956175 5.099602 104.541833t24.988048 106.071713 59.155378 90.772908 107.601594 60.685259q20.398406 7.139442 39.776892 9.689243t37.737052 3.569721q10.199203 1.01992 20.398406 1.01992l21.418327 0q50.996016 0 90.262948-20.398406t68.844622-53.035857 49.976096-74.454183 32.12749-83.633466 16.318725-81.083665 3.569721-66.804781q-3.059761-42.836653-13.768924-77.003984t-21.928287-58.645418q-13.258964-28.557769-29.577689-50.996016l-99.952191-16.318725q-1.01992-13.258964 1.52988-27.027888t10.709163-27.027888 23.458167-25.498008 39.776892-21.418327q24.478088-10.199203 54.565737-18.358566t58.135458-18.868526 49.976096-27.027888 30.087649-42.836653zM542.59761-144.685259q5.099602 0 15.298805 6.629482t20.398406 15.808765 17.848606 18.358566 7.649402 14.278884q0 6.119522-3.059761 21.418327t-7.139442 33.657371-8.159363 35.697211-7.139442 28.557769q10.199203 8.159363 17.848606 18.358566t7.649402 20.398406q0 8.159363-5.609562 16.318725t-12.749004 15.298805q-8.159363 7.139442-18.358566 14.278884l-50.996016 0q-9.179283-7.139442-16.318725-14.278884-6.119522-6.119522-11.219124-14.788845t-5.099602-16.828685q0-5.099602 7.139442-15.298805t18.358566-20.398406q-3.059761-9.179283-7.649402-26.007968t-9.689243-35.697211-8.669323-35.697211-3.569721-24.988048q0-5.099602 7.649402-14.278884t18.358566-18.358566 21.418327-15.808765 15.808765-6.629482z" transform="translate(0, 812) scale(1, -1)"/>
</svg>
