<?xml version="1.0" encoding="utf-8"?>
<!DOCTYPE svg PUBLIC "-//W3C//DTD SVG 1.1//EN" "http://www.w3.org/Graphics/SVG/1.1/DTD/svg11.dtd">
<svg version="1.1" id="图形" xmlns="http://www.w3.org/2000/svg" xmlns:xlink="http://www.w3.org/1999/xlink" x="0px" y="0px" width="1024px" height="1024px" viewBox="0 0 1024 1024" enable-background="new 0 0 1024 1024" xml:space="preserve">
  <path fill="#ffffff" d="M977.92 114.656q-7.168-38.912-27.648-69.632-17.408-26.624-52.224-48.128t-94.208-21.504q-38.912 0-73.728 5.12t-61.44 17.408-43.52 32.256-19.968 48.64 8.192 59.904 33.792 56.832 54.784 41.984 70.144 16.384q64.512 0 112.64-22.528l0 428.032-464.896-67.584 4.096-570.368 0-25.6q0-30.72-12.288-59.904t-34.304-51.712-53.248-35.84-69.12-13.312q-40.96 0-75.776 7.68t-61.44 22.528-43.008 36.864-19.456 50.688 8.192 55.808 34.304 48.64 55.296 36.352 70.144 18.944q28.672 4.096 56.32 0.512t52.224-11.776l0 571.392 646.144 93.184 0-651.264z" transform="translate(0, 812) scale(1, -1)"/>
</svg>
