<?xml version="1.0" encoding="utf-8"?>
<!DOCTYPE svg PUBLIC "-//W3C//DTD SVG 1.1//EN" "http://www.w3.org/Graphics/SVG/1.1/DTD/svg11.dtd">
<svg version="1.1" id="图形" xmlns="http://www.w3.org/2000/svg" xmlns:xlink="http://www.w3.org/1999/xlink" x="0px" y="0px" width="1024px" height="1024px" viewBox="0 0 1024 1024" enable-background="new 0 0 1024 1024" xml:space="preserve">
  <path fill="#ffffff" d="M113.664 457.696q27.648 46.08 74.24 84.48t106.496 66.048 129.536 43.008 145.408 15.36q100.352 0 189.44-25.088t171.008-84.48l1.024-176.128q-55.296 41.984-116.736 72.192t-125.952 44.544-131.584 10.752-132.608-29.184q23.552-26.624 37.888-60.928t14.336-73.216q0-40.96-15.872-77.312t-42.496-62.976-62.976-42.496-77.312-15.872-77.312 15.872-62.976 42.496-42.496 62.976-15.872 77.312q0 63.488 34.816 112.64zM276.48 306.144q17.408 0 29.184 11.776t11.776 29.184-11.776 29.184-29.184 11.776-29.184-11.776-11.776-29.184 11.776-29.184 29.184-11.776zM751.616 219.104q-17.408 0-29.184-11.776t-11.776-29.184 11.776-29.184 29.184-11.776 29.184 11.776 11.776 29.184-11.776 29.184-29.184 11.776zM914.432 67.552q-27.648-46.08-74.24-84.48t-106.496-66.048-130.048-43.008-144.896-15.36q-100.352 0-189.44 25.088t-171.008 84.48l-1.024 176.128q55.296-41.984 116.736-72.192t125.952-44.544 131.072-10.752 133.12 29.184q-23.552 26.624-37.888 60.928t-14.336 73.216q0 40.96 15.872 77.312t42.496 62.976 62.976 42.496 77.312 15.872 77.312-15.872 62.976-42.496 42.496-62.976 15.872-77.312q0-31.744-9.216-60.416t-25.6-52.224z" transform="translate(0, 812) scale(1, -1)"/>
</svg>
