<?xml version="1.0" encoding="utf-8"?>
<!DOCTYPE svg PUBLIC "-//W3C//DTD SVG 1.1//EN" "http://www.w3.org/Graphics/SVG/1.1/DTD/svg11.dtd">
<svg version="1.1" id="图形" xmlns="http://www.w3.org/2000/svg" xmlns:xlink="http://www.w3.org/1999/xlink" x="0px" y="0px" width="1024px" height="1024px" viewBox="0 0 1024 1024" enable-background="new 0 0 1024 1024" xml:space="preserve">
  <path fill="#ffffff" d="M76.8 287.712l0 169.984 279.552 184.32 69.632-134.144 175.104 137.216 71.68-135.168 176.128 132.096 95.232-141.312-3.072-222.208-134.144 154.624-184.32-134.144-68.608 137.216-184.32-129.024-77.824 132.096zM76.8-95.264l0 168.96 279.552 184.32 69.632-134.144 175.104 137.216 71.68-135.168 176.128 132.096 95.232-140.288-3.072-223.232-134.144 155.648-184.32-135.168-68.608 137.216-184.32-129.024-77.824 133.12z" transform="translate(0, 812) scale(1, -1)"/>
</svg>
