<?xml version="1.0" encoding="utf-8"?>
<!DOCTYPE svg PUBLIC "-//W3C//DTD SVG 1.1//EN" "http://www.w3.org/Graphics/SVG/1.1/DTD/svg11.dtd">
<svg version="1.1" id="图形" xmlns="http://www.w3.org/2000/svg" xmlns:xlink="http://www.w3.org/1999/xlink" x="0px" y="0px" width="1024px" height="1024px" viewBox="0 0 1024 1024" enable-background="new 0 0 1024 1024" xml:space="preserve">
  <path fill="#ffffff" d="M384 332 192 332c-52.928 0-96 43.072-96 96L96 620c0 52.928 43.072 96 96 96l192 0c52.928 0 96-43.072 96-96l0-192C480 375.072 436.928 332 384 332zM192 652C174.368 652 160 637.632 160 620l0-192c0-17.632 14.368-32 32-32l192 0c17.632 0 32 14.368 32 32L416 620c0 17.632-14.368 32-32 32L192 652zM384-116 192-116c-52.928 0-96 43.072-96 96l0 192c0 52.928 43.072 96 96 96l192 0c52.928 0 96-43.072 96-96l0-192C480-72.928 436.928-116 384-116zM192 204c-17.632 0-32-14.336-32-32l0-192c0-17.664 14.368-32 32-32l192 0c17.632 0 32 14.336 32 32l0 192c0 17.664-14.368 32-32 32L192 204zM832-116l-192 0c-52.928 0-96 43.072-96 96l0 64c0 52.928 43.072 96 96 96l192 0c52.928 0 96-43.072 96-96l0-64C928-72.928 884.928-116 832-116zM640 76c-17.664 0-32-14.336-32-32l0-64c0-17.664 14.336-32 32-32l192 0c17.664 0 32 14.336 32 32l0 64c0 17.664-14.336 32-32 32L640 76zM832 204l-192 0c-52.928 0-96 43.072-96 96L544 620c0 52.928 43.072 96 96 96l192 0c52.928 0 96-43.072 96-96l0-320C928 247.072 884.928 204 832 204zM640 652c-17.664 0-32-14.368-32-32l0-320c0-17.632 14.336-32 32-32l192 0c17.664 0 32 14.368 32 32L864 620c0 17.632-14.336 32-32 32L640 652z" transform="translate(0, 812) scale(1, -1)"/>
</svg>
