<?xml version="1.0" encoding="utf-8"?>
<!DOCTYPE svg PUBLIC "-//W3C//DTD SVG 1.1//EN" "http://www.w3.org/Graphics/SVG/1.1/DTD/svg11.dtd">
<svg version="1.1" id="图形" xmlns="http://www.w3.org/2000/svg" xmlns:xlink="http://www.w3.org/1999/xlink" x="0px" y="0px" width="1024px" height="1024px" viewBox="0 0 1024 1024" enable-background="new 0 0 1024 1024" xml:space="preserve">
  <path fill="#ffffff" d="M512 76c-105.888 0-192 86.112-192 192s86.112 192 192 192 192-86.112 192-192S617.888 76 512 76zM512 396c-70.592 0-128-57.408-128-128 0-70.592 57.408-128 128-128 70.592 0 128 57.408 128 128C640 338.592 582.592 396 512 396zM864-84 160-84c-52.928 0-96 43.072-96 96L64 524c0 52.928 43.072 96 96 96l96 0c17.664 0 32-14.336 32-32S273.664 556 256 556L160 556C142.368 556 128 541.632 128 524l0-512c0-17.664 14.368-32 32-32l704 0c17.664 0 32 14.336 32 32L896 524c0 17.632-14.336 32-32 32L512 556c-17.664 0-32 14.336-32 32s14.336 32 32 32l352 0c52.928 0 96-43.072 96-96l0-512C960-40.928 916.928-84 864-84zM816 476m-48 0a1.5 1.5 0 1 0 96 0 1.5 1.5 0 1 0-96 0ZM480 684c0-17.664-14.336-32-32-32l-128 0C302.336 652 288 666.336 288 684l0 0c0 17.664 14.336 32 32 32l128 0C465.664 716 480 701.664 480 684L480 684z" transform="translate(0, 812) scale(1, -1)"/>
</svg>
