<?xml version="1.0" encoding="utf-8"?>
<!DOCTYPE svg PUBLIC "-//W3C//DTD SVG 1.1//EN" "http://www.w3.org/Graphics/SVG/1.1/DTD/svg11.dtd">
<svg version="1.1" id="图形" xmlns="http://www.w3.org/2000/svg" xmlns:xlink="http://www.w3.org/1999/xlink" x="0px" y="0px" width="1024px" height="1024px" viewBox="0 0 1024 1024" enable-background="new 0 0 1024 1024" xml:space="preserve">
  <path fill="#ffffff" d="M512-116c-8.192 0-16.384 3.136-22.624 9.376l-96 96c-12.512 12.512-12.512 32.736 0 45.248s32.736 12.512 45.248 0L512-38.752l73.376 73.376C591.36 40.64 599.488 44 608 44l224 0c17.664 0 32 14.336 32 32L864 588c0 17.632-14.336 32-32 32L192 620C174.368 620 160 605.632 160 588l0-512c0-17.664 14.368-32 32-32l96 0c17.664 0 32-14.304 32-32s-14.336-32-32-32L192-20c-52.928 0-96 43.072-96 96L96 588c0 52.928 43.072 96 96 96l640 0c52.928 0 96-43.072 96-96l0-512c0-52.928-43.072-96-96-96l-210.752 0-86.624-86.624C528.384-112.864 520.192-116 512-116zM336 300C309.536 300 288 321.536 288 348S309.536 396 336 396s48-21.536 48-48S362.464 300 336 300zM528 300c-26.464 0-48 21.536-48 48s21.536 48 48 48 48-21.536 48-48S554.464 300 528 300zM720 300c-26.464 0-48 21.536-48 48s21.536 48 48 48 48-21.536 48-48S746.464 300 720 300z" transform="translate(0, 812) scale(1, -1)"/>
</svg>
