<?xml version="1.0" encoding="utf-8"?>
<!DOCTYPE svg PUBLIC "-//W3C//DTD SVG 1.1//EN" "http://www.w3.org/Graphics/SVG/1.1/DTD/svg11.dtd">
<svg version="1.1" id="图形" xmlns="http://www.w3.org/2000/svg" xmlns:xlink="http://www.w3.org/1999/xlink" x="0px" y="0px" width="1024px" height="1024px" viewBox="0 0 1024 1024" enable-background="new 0 0 1024 1024" xml:space="preserve">
  <path fill="#ffffff" d="M936.672 618.784l-226.88 64c-8.704 2.528-18.112 1.12-25.824-3.776-7.68-4.864-12.896-12.736-14.432-21.728C656.576 580.064 590.272 524 512 524c-30.56 0-56.16 13.12-79.296 27.296-15.04 9.216-34.752 4.512-44-10.56s-4.512-34.752 10.56-44C428.896 478.56 465.44 460 512 460c97.664 0 181.952 62.272 212.096 152.288L896 563.776l0-224.736-121.728 24.352c-9.408 1.888-19.168-0.576-26.56-6.624C740.32 350.656 736 341.6 736 332l0-352c0-17.664-14.336-32-32-32L320-52c-17.632 0-32 14.336-32 32L288 364c0 9.6-4.288 18.656-11.712 24.736-7.424 6.08-17.152 8.576-26.56 6.624L128 371.04 128 563.872l200.8 57.376c16.992 4.864 26.816 22.56 21.984 39.552-4.832 16.96-22.56 26.816-39.552 21.984l-224-64C73.472 614.848 64 602.272 64 588l0-256c0-9.6 4.288-18.656 11.712-24.736 7.392-6.08 17.152-8.512 26.56-6.624L224 324.96 224-20c0-52.928 43.072-96 96-96l384 0c52.928 0 96 43.072 96 96l0 312.96 121.728-24.352c9.44-1.92 19.2 0.544 26.56 6.624C955.68 281.344 960 290.4 960 300L960 588C960 602.336 950.464 614.912 936.672 618.784zM320 44c0-17.696 14.336-32 32-32l320 0c17.696 0 32 14.304 32 32s-14.304 32-32 32L352 76C334.336 76 320 61.696 320 44z" transform="translate(0, 812) scale(1, -1)"/>
</svg>
