<?xml version="1.0" encoding="utf-8"?>
<!DOCTYPE svg PUBLIC "-//W3C//DTD SVG 1.1//EN" "http://www.w3.org/Graphics/SVG/1.1/DTD/svg11.dtd">
<svg version="1.1" id="图形" xmlns="http://www.w3.org/2000/svg" xmlns:xlink="http://www.w3.org/1999/xlink" x="0px" y="0px" width="1024px" height="1024px" viewBox="0 0 1024 1024" enable-background="new 0 0 1024 1024" xml:space="preserve">
  <path fill="#ffffff" d="M800-148 224-148c-52.928 0-96 43.072-96 96L128 588c0 52.928 43.072 96 96 96l448 0c17.696 0 32-14.336 32-32s-14.304-32-32-32L224 620C206.368 620 192 605.632 192 588l0-640c0-17.664 14.368-32 32-32l576 0c17.664 0 32 14.336 32 32L832 460c0 17.664 14.304 32 32 32s32-14.336 32-32l0-512C896-104.928 852.928-148 800-148zM612 364c-8.192 0-16.384 3.136-22.624 9.376-12.512 12.512-12.512 32.736 0 45.248l318.016 318.016c12.512 12.512 32.736 12.512 45.248 0s12.512-32.736 0-45.248l-318.016-318.016C628.384 367.104 620.192 364 612 364zM480 364 288 364c-17.664 0-32 14.336-32 32s14.336 32 32 32l192 0c17.664 0 32-14.336 32-32S497.664 364 480 364zM672 172 288 172c-17.664 0-32 14.304-32 32s14.336 32 32 32l384 0c17.696 0 32-14.304 32-32S689.696 172 672 172z" transform="translate(0, 812) scale(1, -1)"/>
</svg>
