<?xml version="1.0" encoding="utf-8"?>
<!DOCTYPE svg PUBLIC "-//W3C//DTD SVG 1.1//EN" "http://www.w3.org/Graphics/SVG/1.1/DTD/svg11.dtd">
<svg version="1.1" id="图形" xmlns="http://www.w3.org/2000/svg" xmlns:xlink="http://www.w3.org/1999/xlink" x="0px" y="0px" width="1024px" height="1024px" viewBox="0 0 1024 1024" enable-background="new 0 0 1024 1024" xml:space="preserve">
  <path fill="#ffffff" d="M384-116 192-116c-52.928 0-96 43.072-96 96l0 192c0 52.928 43.072 96 96 96l192 0c52.928 0 96-43.072 96-96l0-192C480-72.928 436.928-116 384-116zM192 204c-17.632 0-32-14.336-32-32l0-192c0-17.664 14.368-32 32-32l192 0c17.632 0 32 14.336 32 32l0 192c0 17.664-14.368 32-32 32L192 204zM736-84c-17.696 0-32 14.304-32 32l0 64c0 17.696 14.304 32 32 32s32-14.304 32-32l0-64C768-69.696 753.696-84 736-84zM864-84c-17.696 0-32 14.304-32 32l0 96c0 17.696 14.304 32 32 32s32-14.304 32-32l0-96C896-69.696 881.696-84 864-84zM864 140c-17.696 0-32 14.304-32 32l0 64c0 17.696 14.304 32 32 32s32-14.304 32-32l0-64C896 154.304 881.696 140 864 140zM736 76c-17.696 0-32 14.304-32 32l0 128c0 17.696 14.304 32 32 32s32-14.304 32-32l0-128C768 90.304 753.696 76 736 76zM608-84c-17.696 0-32 14.304-32 32l0 128c0 17.696 14.304 32 32 32s32-14.304 32-32l0-128C640-69.696 625.696-84 608-84zM608 172c-17.696 0-32 14.304-32 32l0 32c0 17.696 14.304 32 32 32s32-14.304 32-32l0-32C640 186.304 625.696 172 608 172zM320 12 256 12c-17.664 0-32 14.304-32 32l0 64c0 17.696 14.336 32 32 32l64 0c17.664 0 32-14.304 32-32l0-64C352 26.304 337.664 12 320 12zM384 332 192 332c-52.928 0-96 43.072-96 96L96 620c0 52.928 43.072 96 96 96l192 0c52.928 0 96-43.072 96-96l0-192C480 375.072 436.928 332 384 332zM192 652C174.368 652 160 637.632 160 620l0-192c0-17.632 14.368-32 32-32l192 0c17.632 0 32 14.368 32 32L416 620c0 17.632-14.368 32-32 32L192 652zM320 460 256 460c-17.664 0-32 14.336-32 32L224 556c0 17.664 14.336 32 32 32l64 0c17.664 0 32-14.336 32-32l0-64C352 474.336 337.664 460 320 460zM832 332l-192 0c-52.928 0-96 43.072-96 96L544 620c0 52.928 43.072 96 96 96l192 0c52.928 0 96-43.072 96-96l0-192C928 375.072 884.928 332 832 332zM640 652c-17.664 0-32-14.368-32-32l0-192c0-17.632 14.336-32 32-32l192 0c17.664 0 32 14.368 32 32L864 620c0 17.632-14.336 32-32 32L640 652zM768 460l-64 0c-17.696 0-32 14.336-32 32L672 556c0 17.664 14.304 32 32 32l64 0c17.696 0 32-14.336 32-32l0-64C800 474.336 785.696 460 768 460z" transform="translate(0, 812) scale(1, -1)"/>
</svg>
