<?xml version="1.0" encoding="utf-8"?>
<!DOCTYPE svg PUBLIC "-//W3C//DTD SVG 1.1//EN" "http://www.w3.org/Graphics/SVG/1.1/DTD/svg11.dtd">
<svg version="1.1" id="图形" xmlns="http://www.w3.org/2000/svg" xmlns:xlink="http://www.w3.org/1999/xlink" x="0px" y="0px" width="1024px" height="1024px" viewBox="0 0 1024 1024" enable-background="new 0 0 1024 1024" xml:space="preserve">
  <path fill="#ffffff" d="M800-116 224-116c-52.928 0-96 43.072-96 96L128 620c0 52.928 43.072 96 96 96l576 0c52.928 0 96-43.072 96-96l0-640C896-72.928 852.928-116 800-116zM224 652C206.368 652 192 637.632 192 620l0-640c0-17.664 14.368-32 32-32l576 0c17.664 0 32 14.336 32 32L832 620c0 17.632-14.336 32-32 32L224 652zM640.992 267.136 287.776 267.136c-17.664 0-32 14.336-32 32s14.336 32 32 32l353.216 0c17.696 0 32-14.336 32-32S658.688 267.136 640.992 267.136zM734.88 76.48 287.648 76.48c-17.664 0-32 14.304-32 32s14.336 32 32 32l447.232 0c17.696 0 32-14.304 32-32S752.576 76.48 734.88 76.48zM303.712 506.656m-48 0a1.5 1.5 0 1 0 96 0 1.5 1.5 0 1 0-96 0ZM511.104 506.656m-48 0a1.5 1.5 0 1 0 96 0 1.5 1.5 0 1 0-96 0ZM719.232 506.656m-48 0a1.5 1.5 0 1 0 96 0 1.5 1.5 0 1 0-96 0Z" transform="translate(0, 812) scale(1, -1)"/>
</svg>
