<?xml version="1.0" encoding="utf-8"?>
<!DOCTYPE svg PUBLIC "-//W3C//DTD SVG 1.1//EN" "http://www.w3.org/Graphics/SVG/1.1/DTD/svg11.dtd">
<svg version="1.1" id="图形" xmlns="http://www.w3.org/2000/svg" xmlns:xlink="http://www.w3.org/1999/xlink" x="0px" y="0px" width="1024px" height="1024px" viewBox="0 0 1024 1024" enable-background="new 0 0 1024 1024" xml:space="preserve">
  <path fill="#ffffff" d="M204.896-51.104c-3.456 0-6.912 0.128-10.4 0.416-107.776 8.832-179.584 169.792-163.488 366.4C47.36 515.648 141.024 660.256 249.44 650.944c48.384-3.968 81.92-42.912 105.76-76.416 10.24-14.4 6.88-34.368-7.52-44.64C333.248 519.648 313.312 523.072 303.04 537.44c-23.456 32.96-41.6 48.288-58.816 49.728-59.008 4.256-135.584-107.584-149.408-276.672-13.824-169.056 44.192-292.384 104.928-297.344 52.96-4.96 105.024 61.152 132.192 166.848C335.552 194.112 348.288 204 362.912 204l299.904 0c14.432 0 27.072-9.664 30.88-23.552 29.152-106.688 81.216-172.352 135.328-166.848 29.408 2.976 57.28 33.632 76.448 84.096 22.208 58.592 30.016 135.04 21.888 215.232s-31.072 153.536-64.64 206.56c-28.928 45.696-62.016 70.592-91.744 67.2C752.64 584.8 731.36 567.488 711.168 537.952 705.216 529.216 695.328 524 684.736 524L448 524c-17.664 0-32 14.336-32 32s14.336 32 32 32l220.48 0c29.28 37.92 61.568 58.848 96.064 62.336 107.328 10.944 206.592-134.592 226.496-331.008 9.088-89.888-0.032-176.672-25.76-244.384-28.512-75.072-74.592-119.456-129.824-125.056-81.76-8.352-156.128 63.968-196.544 190.08l-251.808 0C350.624 20.448 282.592-51.104 204.896-51.104zM320 364 288 364l0 32c0 17.664-14.336 32-32 32s-32-14.336-32-32l0-32L192 364c-17.664 0-32-14.336-32-32s14.336-32 32-32l32 0 0-32c0-17.696 14.336-32 32-32s32 14.304 32 32l0 32 32 0c17.664 0 32 14.336 32 32S337.664 364 320 364zM800 428m-64 0a2 2 0 1 0 128 0 2 2 0 1 0-128 0ZM672 300m-64 0a2 2 0 1 0 128 0 2 2 0 1 0-128 0Z" transform="translate(0, 812) scale(1, -1)"/>
</svg>
