<?xml version="1.0" encoding="utf-8"?>
<!DOCTYPE svg PUBLIC "-//W3C//DTD SVG 1.1//EN" "http://www.w3.org/Graphics/SVG/1.1/DTD/svg11.dtd">
<svg version="1.1" id="图形" xmlns="http://www.w3.org/2000/svg" xmlns:xlink="http://www.w3.org/1999/xlink" x="0px" y="0px" width="1024px" height="1024px" viewBox="0 0 1024 1024" enable-background="new 0 0 1024 1024" xml:space="preserve">
  <path fill="#ffffff" d="M929.248 524l-75.616 0c18.688 0 35.52 37.376 43.168 62.016 9.376 30.432 3.648 60.352-16.576 86.944-1.376 1.824-2.944 3.392-4.672 4.864-97.28 83.168-228.96 3.04-282.496-36.288-14.432-10.016-18.08-29.824-8.16-44.352 9.984-14.624 29.888-18.368 44.48-8.384 0.288 0.192 2.624 1.888 2.944 2.08 30.592 22.528 134.496 91.2 198.88 40.448 6.016-8.96 7.328-17.376 4.448-26.848-7.616-24.64-39.68-47.36-55.2-52.544-60.192-22.592-79.808-24.896-104.992-26.72C673.344 525.056 671.584 524 669.664 524l-88.416 0c-1.408 0-2.528 4.096-4.544 5.952-32.992 30.752-111.2 103.008-126.72 113.376C332.448 723.936 225.664 736.48 157.088 677.824c-1.728-1.472-3.296-3.2-4.672-4.992C132.16 646.208 126.432 616.448 135.84 586.016 143.456 561.344 160.32 524 178.88 524L97.344 524C79.68 524 64 508.832 64 491.168l0-160c0-17.664 0-32 32-32l0-312.896C96-69.536 138.624-116 189.344-116l645.28 0C885.92-116 928-68.608 928-13.728l0 312.896c32 0 32 14.336 32 32l0 160C960 508.832 946.944 524 929.248 524zM357.216 525.184C332 527.04 312.32 529.536 251.04 552.512 236.672 557.312 204.608 579.968 196.992 604.576 194.048 614.048 195.424 622.4 201.408 631.36c64.064 50.432 169.6-11.264 214.656-42.144C422.4 584.672 453.664 556 489.376 524l-126.368 0C361.056 524 359.296 525.024 357.216 525.184zM896 460l0-96L131.968 364C131.04 364 128 362.848 128 362.752L128 460 896 460zM834.624-52 189.344-52C172.832-52 160-31.328 160-13.728L160 300l704 0 0-313.728C864-32.832 850.368-52 834.624-52z" transform="translate(0, 812) scale(1, -1)"/>
</svg>
