<?xml version="1.0" encoding="utf-8"?>
<!DOCTYPE svg PUBLIC "-//W3C//DTD SVG 1.1//EN" "http://www.w3.org/Graphics/SVG/1.1/DTD/svg11.dtd">
<svg version="1.1" id="图形" xmlns="http://www.w3.org/2000/svg" xmlns:xlink="http://www.w3.org/1999/xlink" x="0px" y="0px" width="1024px" height="1024px" viewBox="0 0 1024 1024" enable-background="new 0 0 1024 1024" xml:space="preserve">
  <path fill="#ffffff" d="M979.84 407.456 574.272 728c-34.912 27.648-89.696 27.616-124.576 0L44.16 407.456c-13.856-10.976-16.224-31.104-5.28-44.96s30.624-16.224 44.48-5.28L96 367.584 96-20c0-54.944 57.888-96 108.8-96l640 0c50.304 0 83.2 38.592 83.2 96L928 366.08l11.68-8.864c5.888-4.64 13.12-6.88 20.064-6.88 9.44 0 18.912 4.16 25.216 12.16C995.936 376.352 993.728 396.48 979.84 407.456zM480-52l0 177.408c0 8.832 16 13.248 32 13.248s32-4.416 32-13.248L544-52 480-52zM864-20c0-21.216-5.856-32-19.2-32L608.64-52c0 0.48-0.64 0.864-0.64 1.344l0 176.064c0 37.216-30.016 77.28-96 77.28s-96-40.064-96-77.28l0-176.064c0-0.48 0.864-0.864 0.864-1.344L204.8-52C184.736-52 160-34.656 160-20L160 418.176l328.928 259.616c11.808 9.344 33.12 9.344 44.96 0L864 416.672 864-20z" transform="translate(0, 812) scale(1, -1)"/>
</svg>
