<?xml version="1.0" encoding="utf-8"?>
<!DOCTYPE svg PUBLIC "-//W3C//DTD SVG 1.1//EN" "http://www.w3.org/Graphics/SVG/1.1/DTD/svg11.dtd">
<svg version="1.1" id="图形" xmlns="http://www.w3.org/2000/svg" xmlns:xlink="http://www.w3.org/1999/xlink" x="0px" y="0px" width="1024px" height="1024px" viewBox="0 0 1024 1024" enable-background="new 0 0 1024 1024" xml:space="preserve">
  <path fill="#ffffff" d="M320 428m-64 0a2 2 0 1 0 128 0 2 2 0 1 0-128 0ZM842.688-84 181.312-84C116.64-84 64-31.36 64 33.312L64 566.688C64 631.36 116.64 684 181.312 684l661.376 0C907.36 684 960 631.36 960 566.688l0-533.376C960-31.36 907.36-84 842.688-84zM181.312 620C151.936 620 128 596.064 128 566.688l0-533.376C128 3.904 151.936-20 181.312-20l661.376 0C872.096-20 896 3.904 896 33.312L896 566.688C896 596.064 872.096 620 842.688 620L181.312 620zM224 43.008c-3.136 0-6.336 0.48-9.504 1.472-16.864 5.248-26.304 23.136-21.056 40 2.368 7.616 60.16 186.848 183.168 183.648 35.008-0.864 64.32-9.696 92.672-18.24 36.416-10.944 67.904-20.384 109.632-13.728 20.448 3.296 28.896 23.84 43.328 69.984 19.04 60.832 47.808 152.736 174.656 152.736 17.696 0 32-14.336 32-32s-14.304-32-32-32c-75.968 0-92.672-40.992-113.6-107.872-14.496-46.4-32.608-104.16-94.272-114.016-56.288-8.96-99.776 4.128-138.208 15.616-25.408 7.648-49.44 14.88-75.872 15.52-0.48 0.032-0.96 0.032-1.44 0.032-62.016 0-106.88-99.872-119.008-138.656C250.272 51.808 237.632 43.008 224 43.008z" transform="translate(0, 812) scale(1, -1)"/>
</svg>
