<?xml version="1.0" encoding="utf-8"?>
<!DOCTYPE svg PUBLIC "-//W3C//DTD SVG 1.1//EN" "http://www.w3.org/Graphics/SVG/1.1/DTD/svg11.dtd">
<svg version="1.1" id="图形" xmlns="http://www.w3.org/2000/svg" xmlns:xlink="http://www.w3.org/1999/xlink" x="0px" y="0px" width="1024px" height="1024px" viewBox="0 0 1024 1024" enable-background="new 0 0 1024 1024" xml:space="preserve">
  <path fill="#ffffff" d="M512-116c-28.928 0-57.92 12.672-86.624 41.376L106.272 248C68.064 295.648 32 340.672 32 428c0 141.152 114.848 256 256 256 53.088 0 104-16.096 147.296-46.592 14.432-10.176 17.92-30.144 7.712-44.608-10.176-14.432-30.08-17.92-44.608-7.712C366.016 607.936 327.808 620 288 620c-105.888 0-192-86.112-192-192 0-61.408 20.288-90.112 59.168-138.688l315.584-318.816C486.72-45.472 499.616-51.808 512-52c12.704-0.192 24.928 6.176 41.376 22.624l316.672 319.904C896.064 318.72 928 366.304 928 428c0 105.888-86.112 192-192 192-48.064 0-94.08-17.856-129.536-50.272l-134.08-134.112c-12.512-12.512-32.736-12.512-45.248 0s-12.512 32.736 0 45.248l135.104 135.136C610.56 660.192 671.904 684 736 684c141.152 0 256-114.848 256-256 0-82.368-41.152-144.288-75.68-181.696l-317.568-320.8C569.952-103.328 540.96-116 512-116z" transform="translate(0, 812) scale(1, -1)"/>
</svg>
