<?xml version="1.0" encoding="utf-8"?>
<!DOCTYPE svg PUBLIC "-//W3C//DTD SVG 1.1//EN" "http://www.w3.org/Graphics/SVG/1.1/DTD/svg11.dtd">
<svg version="1.1" id="图形" xmlns="http://www.w3.org/2000/svg" xmlns:xlink="http://www.w3.org/1999/xlink" x="0px" y="0px" width="1024px" height="1024px" viewBox="0 0 1024 1024" enable-background="new 0 0 1024 1024" xml:space="preserve">
  <path fill="#ffffff" d="M926.56 691.2c-0.224 1.344-0.32 2.72-0.8 4.032 0 0 0 0-0.032 0.032-0.8 2.176-2.112 3.968-3.36 5.888-0.032 0.064-0.064 0.096-0.096 0.16-0.832 1.28-1.216 2.688-2.24 3.872-0.224 0.256-0.544 0.352-0.768 0.608-1.6 1.728-3.584 2.88-5.568 4.224 0 0.032-0.032 0.032-0.064 0.064-1.504 1.024-2.848 2.272-4.48 3.008 0 0 0 0-0.032 0C905.088 714.88 900.672 716 896 716l-224 0c-17.696 0-32-14.336-32-32s14.304-32 32-32l139.328 0-152.704-134.656C599.808 561.504 527.04 588 448 588 253.92 588 96 430.08 96 236s157.92-352 352-352 352 157.92 352 352c0 91.904-35.68 175.424-93.6 238.176L864 613.12 864 492c0-17.664 14.304-32 32-32s32 14.336 32 32L928 684C928 686.56 927.136 688.8 926.56 691.2zM736 236c0-158.816-129.184-288-288-288-158.784 0-288 129.184-288 288 0 158.784 129.216 288 288 288C606.816 524 736 394.784 736 236z" transform="translate(0, 812) scale(1, -1)"/>
</svg>
