<?xml version="1.0" encoding="utf-8"?>
<!DOCTYPE svg PUBLIC "-//W3C//DTD SVG 1.1//EN" "http://www.w3.org/Graphics/SVG/1.1/DTD/svg11.dtd">
<svg version="1.1" id="图形" xmlns="http://www.w3.org/2000/svg" xmlns:xlink="http://www.w3.org/1999/xlink" x="0px" y="0px" width="1024px" height="1024px" viewBox="0 0 1024 1024" enable-background="new 0 0 1024 1024" xml:space="preserve">
  <path fill="#ffffff" d="M512 748C264.96 748 64 547.04 64 300s200.96-448 448-448 448 200.96 448 448S759.04 748 512 748zM289.216-12.16c3.168 0.128 6.336 0.224 9.472 1.344 62.784 22.24 124.8 38.24 158.016 40.8 16.672 1.28 29.536 15.2 29.536 31.904l0 59.072c0 9.408-4.128 18.336-11.296 24.416-53.088 45.088-72 144.768-72 223.072 0 90.016 42.144 135.648 125.28 135.648 79.2 0 117.696-44.352 117.696-135.648 0-88.928-39.296-189.856-89.44-229.792-7.616-6.048-12.064-15.264-12.064-25.024l0-55.008c0-16.224 12.128-29.824 28.224-31.776 37.184-4.448 101.088-25.952 148.48-44.64 1.568-0.608 3.2-0.544 4.832-0.896C664.768-59.904 591.136-84 512-84 428.896-84 352.096-57.184 289.216-12.16zM764.608 11.488c0.224 12.96-7.296 25.248-20.064 30.304-20.8 8.192-84.16 32.32-136.128 43.68l0 13.6c66.688 62.816 101.504 180.48 101.504 269.376 0 126.88-66.208 199.648-181.696 199.648-118.528 0-189.28-74.624-189.28-199.648 0-42.944 6.24-183.936 83.296-261.408l0-17.152c-44.704-7.904-101.44-25.024-144.928-40.416-15.008-5.312-22.976-20.704-20.16-35.936C178.144 83.936 128 186.08 128 300 128 511.744 300.256 684 512 684s384-172.256 384-384C896 184.992 844.928 81.92 764.608 11.488z" transform="translate(0, 812) scale(1, -1)"/>
</svg>
