<?xml version="1.0" encoding="utf-8"?>
<!DOCTYPE svg PUBLIC "-//W3C//DTD SVG 1.1//EN" "http://www.w3.org/Graphics/SVG/1.1/DTD/svg11.dtd">
<svg version="1.1" id="图形" xmlns="http://www.w3.org/2000/svg" xmlns:xlink="http://www.w3.org/1999/xlink" x="0px" y="0px" width="1024px" height="1024px" viewBox="0 0 1024 1024" enable-background="new 0 0 1024 1024" xml:space="preserve">
  <path fill="#ffffff" d="M386.784-148c-0.928 0-1.856 0.032-2.816 0.128-160.928 14.016-282.272 90.56-282.272 178.016 0 84.64 128.864 139.936 258.112 158.944l0 12.544C262.88 274.624 249.984 406.56 249.984 515.04c0 145.888 85.856 232.96 229.664 232.96 142.08 0 220.352-82.72 220.352-232.96 0-69.76-23.84-157.888-62.208-230.016-8.288-15.584-27.648-21.536-43.296-13.216-15.584 8.288-21.536 27.68-13.216 43.296 33.248 62.496 54.72 140.96 54.72 199.968 0 113.696-51.136 168.96-156.352 168.96-109.92 0-165.664-56.832-165.664-168.96 0-103.456 11.296-216.416 95.008-269.696 9.216-5.888 14.816-16.064 14.816-27.008l0-57.472c0-16.384-12.352-30.08-28.64-31.808-140.096-14.784-229.472-68.48-229.472-98.912 0-39.552 85.152-102.176 223.84-114.272 17.6-1.536 30.624-17.056 29.088-34.656C417.184-135.424 403.2-148 386.784-148zM852.032-147.232c-5.344 0-10.688 1.344-15.52 4.032l-112.896 62.624-113.152-62.24c-10.816-5.952-23.936-5.184-33.92 1.92-9.984 7.072-15.104 19.264-13.088 31.328L585.6 24.8l-92.608 95.264c-8.352 8.64-11.2 21.152-7.36 32.544s13.696 19.616 25.568 21.44l126.88 19.136 57.312 121.312c5.28 11.2 16.576 18.336 28.928 18.336 0.032 0 0.064 0 0.064 0 12.416-0.032 23.68-7.232 28.928-18.464l56.768-121.568 126.72-19.552c11.84-1.824 21.696-10.112 25.504-21.504 3.776-11.392 0.864-23.936-7.488-32.512l-92.832-94.848 20.672-128.288c1.312-3.488 2.016-7.328 2.016-11.296 0-17.696-14.304-32-32-32C852.512-147.264 852.288-147.264 852.032-147.232zM723.648-12c5.344 0 10.688-1.344 15.52-4.032l70.784-39.264-13.76 85.376c-1.632 10.016 1.632 20.224 8.704 27.456l60.576 61.888-82.048 12.672c-10.56 1.632-19.584 8.416-24.128 18.08l-35.168 75.328-35.488-75.104c-4.576-9.664-13.632-16.416-24.16-17.984l-82.208-12.384 60.448-62.176c7.104-7.296 10.272-17.504 8.64-27.52l-14.048-85.312 70.944 39.04C713.024-13.312 718.336-12 723.648-12z" transform="translate(0, 812) scale(1, -1)"/>
</svg>
