<?xml version="1.0" encoding="utf-8"?>
<!DOCTYPE svg PUBLIC "-//W3C//DTD SVG 1.1//EN" "http://www.w3.org/Graphics/SVG/1.1/DTD/svg11.dtd">
<svg version="1.1" id="图形" xmlns="http://www.w3.org/2000/svg" xmlns:xlink="http://www.w3.org/1999/xlink" x="0px" y="0px" width="1024px" height="1024px" viewBox="0 0 1024 1024" enable-background="new 0 0 1024 1024" xml:space="preserve">
  <path fill="#ffffff" d="M736-180 288-180c-52.928 0-96 43.072-96 96L192 684c0 52.928 43.072 96 96 96l448 0c52.928 0 96-43.072 96-96l0-768C832-136.928 788.928-180 736-180zM288 716C270.368 716 256 701.632 256 684l0-768c0-17.664 14.368-32 32-32l448 0c17.664 0 32 14.336 32 32L768 684c0 17.632-14.336 32-32 32L288 716zM512-84.416c-35.296 0-64 28.704-64 64s28.704 64 64 64c35.296 0 64-28.704 64-64S547.296-84.416 512-84.416zM512.032-20.416c0 0-0.064 0-0.064-0.032L512-52.416 512.032-20.416zM704 76 320 76c-17.664 0-32 14.304-32 32L288 652c0 17.664 14.336 32 32 32l384 0c17.696 0 32-14.336 32-32l0-544C736 90.304 721.696 76 704 76zM352 140l320 0L672 620 352 620 352 140z" transform="translate(0, 812) scale(1, -1)"/>
</svg>
