<?xml version="1.0" encoding="utf-8"?>
<!DOCTYPE svg PUBLIC "-//W3C//DTD SVG 1.1//EN" "http://www.w3.org/Graphics/SVG/1.1/DTD/svg11.dtd">
<svg version="1.1" id="图形" xmlns="http://www.w3.org/2000/svg" xmlns:xlink="http://www.w3.org/1999/xlink" x="0px" y="0px" width="1024px" height="1024px" viewBox="0 0 1024 1024" enable-background="new 0 0 1024 1024" xml:space="preserve">
  <path fill="#ffffff" d="M512 748C264.96 748 64 547.04 64 300s200.96-448 448-448 448 200.96 448 448S759.04 748 512 748zM512-84C300.256-84 128 88.256 128 300 128 511.744 300.256 684 512 684c211.744 0 384-172.256 384-384C896 88.256 723.744-84 512-84zM641.088 300c17.696 0 32 14.336 32 32s-14.304 32-32 32L544 364l0 15.136 118.592 123.872c12.192 12.8 12 33.056-0.8 45.248-12.736 12.16-32.832 11.712-45.088-1.12l-101.6-106.784-107.584 107.36c-12.544 12.512-32.768 12.448-45.248-0.064-12.48-12.512-13.088-32.768-0.576-45.248L480 383.776 480 364l-94.784 0c-17.664 0-32-14.336-32-32s14.336-32 32-32L480 300l0-64-94.784 0c-17.664 0-32-14.304-32-32s14.336-32 32-32L480 172l0-95.136c0-17.696 14.336-32 32-32s32 14.304 32 32L544 172l97.088 0c17.696 0 32 14.304 32 32s-14.304 32-32 32L544 236l0 64L641.088 300z" transform="translate(0, 812) scale(1, -1)"/>
</svg>
