<?xml version="1.0" encoding="utf-8"?>
<!DOCTYPE svg PUBLIC "-//W3C//DTD SVG 1.1//EN" "http://www.w3.org/Graphics/SVG/1.1/DTD/svg11.dtd">
<svg version="1.1" id="图形" xmlns="http://www.w3.org/2000/svg" xmlns:xlink="http://www.w3.org/1999/xlink" x="0px" y="0px" width="1024px" height="1024px" viewBox="0 0 1024 1024" enable-background="new 0 0 1024 1024" xml:space="preserve">
  <path fill="#ffffff" d="M896 584.896c-8.192 0-16.384 3.136-22.624 9.376l-96 96c-12.512 12.512-12.512 32.736 0 45.248s32.736 12.512 45.248 0l96-96c12.512-12.512 12.512-32.736 0-45.248C912.384 588.032 904.192 584.896 896 584.896zM129.216 586.88c-8.192 0-16.384 3.136-22.624 9.376-12.512 12.512-12.512 32.736 0 45.248l96 96c12.512 12.512 32.736 12.512 45.248 0 12.512-12.512 12.512-32.736 0-45.248l-96-96C145.6 589.984 137.408 586.88 129.216 586.88zM726.624 466.272c12.512 12.512 12.512 32.736 0 45.248s-32.736 12.512-45.248 0l-128-128c-0.096-0.064-0.096-0.192-0.192-0.288-12.576 6.016-26.4 9.664-41.184 9.664s-28.672-3.648-41.184-9.664c-0.064 0.096-0.096 0.192-0.192 0.288l-96 96c-12.512 12.512-32.736 12.512-45.248 0s-12.512-32.736 0-45.248l96-96c0.064-0.064 0.192-0.096 0.288-0.192C419.648 325.568 416 311.712 416 296.896c0-52.928 43.072-96 96-96 52.928 0 96 43.104 96 96 0 14.784-3.648 28.672-9.664 41.184 0.096 0.064 0.192 0.096 0.288 0.192L726.624 466.272zM512 264.864c-17.632 0-32 14.368-32 32s14.368 32 32 32 32-14.368 32-32S529.632 264.864 512 264.864zM506.848 296.896M809.888 7.136C882.816 82.048 928 184.288 928 296.896c0 229.376-186.624 416-416 416s-416-186.624-416-416c0-113.376 45.696-216.192 119.52-291.328l-48.896-73.984c-9.728-14.752-5.696-34.624 9.056-44.32 5.44-3.584 11.552-5.312 17.6-5.312 10.4 0 20.576 4.992 26.72 14.336l44.352 67.168c69.28-51.584 154.816-82.56 247.648-82.56 93.568 0 179.744 31.424 249.312 83.808l45.376-66.56c6.176-9.056 16.256-13.984 26.464-13.984 6.208 0 12.48 1.856 17.984 5.6 14.624 9.984 18.368 29.888 8.448 44.448L809.888 7.136zM160 296.896c0 194.08 157.92 352 352 352 194.048 0 352-157.92 352-352s-157.952-352-352-352C317.92-55.136 160 102.816 160 296.896z" transform="translate(0, 812) scale(1, -1)"/>
</svg>
