<?xml version="1.0" encoding="utf-8"?>
<!DOCTYPE svg PUBLIC "-//W3C//DTD SVG 1.1//EN" "http://www.w3.org/Graphics/SVG/1.1/DTD/svg11.dtd">
<svg version="1.1" id="图形" xmlns="http://www.w3.org/2000/svg" xmlns:xlink="http://www.w3.org/1999/xlink" x="0px" y="0px" width="1024px" height="1024px" viewBox="0 0 1024 1024" enable-background="new 0 0 1024 1024" xml:space="preserve">
  <path fill="#ffffff" d="M889.92 62.272c-1.184 1.632-119.232 166.144-119.232 287.392 0 168.448-76.16 254.784-162.688 287.008L608 652c0 52.928-43.072 96-96 96s-96-43.072-96-96l0-16.576c-10.784-7.904-16.096-21.792-11.808-35.232 5.376-16.832 23.424-26.048 40.224-20.736C462.176 585.12 481.344 588 501.312 588l21.376 0c115.232 0 184-89.088 184-238.304 0-108.032 72.896-235.392 110.176-293.504C759.488 30.016 633.824-20 512-20c-121.504 0-247.424 50.368-304.832 76.64 37.312 57.984 110.144 185.024 110.144 293.056 0 62.432 11.616 114.208 34.528 153.92 8.832 15.328 3.584 34.88-11.712 43.712-15.392 8.864-34.88 3.584-43.712-11.712-28.608-49.536-43.104-112.096-43.104-185.92 0-121.216-118.016-285.248-119.2-286.88-5.408-7.456-7.36-16.928-5.312-25.952 2.048-8.96 7.872-16.672 16-21.024 5.664-3.072 107.392-57.28 233.536-84.512C399.744-135.072 452.16-180 512-180s112.256 44.928 133.632 111.296c126.112 27.104 227.84 80.992 233.504 84.032 8.128 4.352 14.016 12.032 16.064 21.024S895.328 54.784 889.92 62.272zM501.312 652C494.048 652 487.104 651.008 480 650.432L480 652c0 17.632 14.368 32 32 32s32-14.368 32-32l0-0.928C536.832 651.68 529.728 652 522.688 652L501.312 652zM512-116c-22.336 0-43.136 13.408-57.984 35.296C473.216-82.72 492.608-84 512-84s38.784 1.28 57.984 3.296C555.136-102.624 534.304-116 512-116z" transform="translate(0, 812) scale(1, -1)"/>
</svg>
