<?xml version="1.0" encoding="utf-8"?>
<!DOCTYPE svg PUBLIC "-//W3C//DTD SVG 1.1//EN" "http://www.w3.org/Graphics/SVG/1.1/DTD/svg11.dtd">
<svg version="1.1" id="图形" xmlns="http://www.w3.org/2000/svg" xmlns:xlink="http://www.w3.org/1999/xlink" x="0px" y="0px" width="1024px" height="1024px" viewBox="0 0 1024 1024" enable-background="new 0 0 1024 1024" xml:space="preserve">
  <path fill="#ffffff" d="M160 204c-17.664 0-32 14.304-32 32l0 160c0 17.664 14.336 32 32 32s32-14.336 32-32l0-160C192 218.304 177.664 204 160 204zM864-116 224-116c-52.928 0-96 42.752-96 95.328L128 44c0 17.696 14.336 32 32 32s32-14.304 32-32l0-64.672C192-37.984 206.368-52 224-52l640 0c17.664 0 32 14.336 32 32L896 620c0 17.632-14.336 32-32 32L224 652C205.44 652 192 641.856 192 634.976L192 588c0-17.664-14.336-32-32-32S128 570.336 128 588L128 634.976C128 679.648 171.072 716 224 716l640 0c52.928 0 96-43.072 96-96l0-640C960-72.928 916.928-116 864-116zM192 460 96 460c-17.664 0-32 14.336-32 32s14.336 32 32 32l96 0c17.664 0 32-14.336 32-32S209.664 460 192 460zM192 108 96 108c-17.664 0-32 14.304-32 32s14.336 32 32 32l96 0c17.664 0 32-14.304 32-32S209.664 108 192 108zM319.456 11.008c-14.56 0-27.712 9.984-31.136 24.736-4 17.216 6.688 34.4 23.936 38.4 4.544 1.056 97.792 22.656 167.744 30.56l0 20.032c-67.136 57.6-96 139.52-96 269.92 0 127.84 64.608 192.672 192 192.672 158.688 0 192-104.416 192-192 0-139.008-66.24-223.2-127.2-271.2l0.224-19.84c69.28-8.544 161.504-29.088 165.984-30.08 17.248-3.84 28.096-20.96 24.224-38.208-3.808-17.216-20.704-28.224-38.208-24.224-1.184 0.256-121.856 27.168-185.92 31.648-16.64 1.152-29.568 14.912-29.76 31.552l-0.672 64.672c-0.128 10.464 4.864 20.32 13.408 26.368C642.016 203.2 704 273.152 704 395.328c0 90.912-37.088 128-128 128-92.096 0-128-36.064-128-128.672 0-117.632 24.16-184.032 83.392-229.248C539.328 159.36 544 149.984 544 140l0-64.672c0-17.088-13.408-31.168-30.464-31.968-63.584-3.04-185.568-31.264-186.784-31.52C324.32 11.264 321.888 11.008 319.456 11.008z" transform="translate(0, 812) scale(1, -1)"/>
</svg>
