<?xml version="1.0" encoding="utf-8"?>
<!DOCTYPE svg PUBLIC "-//W3C//DTD SVG 1.1//EN" "http://www.w3.org/Graphics/SVG/1.1/DTD/svg11.dtd">
<svg version="1.1" id="图形" xmlns="http://www.w3.org/2000/svg" xmlns:xlink="http://www.w3.org/1999/xlink" x="0px" y="0px" width="1024px" height="1024px" viewBox="0 0 1024 1024" enable-background="new 0 0 1024 1024" xml:space="preserve">
  <path fill="#ffffff" d="M928 268 96 268c-17.664 0-32 14.336-32 32s14.336 32 32 32l832 0c17.696 0 32-14.336 32-32S945.696 268 928 268zM832-116l-192 0c-17.696 0-32 14.304-32 32s14.304 32 32 32l192 0c17.664 0 32 14.336 32 32l0 160c0 17.696 14.304 32 32 32s32-14.304 32-32l0-160C928-72.928 884.928-116 832-116zM352-116 192-116c-52.928 0-96 43.072-96 96l0 160c0 17.696 14.336 32 32 32s32-14.304 32-32l0-160c0-17.664 14.368-32 32-32l160 0c17.664 0 32-14.304 32-32S369.664-116 352-116zM128 428c-17.664 0-32 14.336-32 32L96 620c0 52.928 43.072 96 96 96l160 0c17.664 0 32-14.336 32-32s-14.336-32-32-32L192 652C174.368 652 160 637.632 160 620l0-160C160 442.336 145.664 428 128 428zM896 428c-17.696 0-32 14.336-32 32L864 620c0 17.632-14.336 32-32 32l-192 0c-17.696 0-32 14.336-32 32s14.304 32 32 32l192 0c52.928 0 96-43.072 96-96l0-160C928 442.336 913.696 428 896 428z" transform="translate(0, 812) scale(1, -1)"/>
</svg>
