<?xml version="1.0" encoding="utf-8"?>
<!DOCTYPE svg PUBLIC "-//W3C//DTD SVG 1.1//EN" "http://www.w3.org/Graphics/SVG/1.1/DTD/svg11.dtd">
<svg version="1.1" id="图形" xmlns="http://www.w3.org/2000/svg" xmlns:xlink="http://www.w3.org/1999/xlink" x="0px" y="0px" width="1024px" height="1024px" viewBox="0 0 1024 1024" enable-background="new 0 0 1024 1024" xml:space="preserve">
  <path fill="#ffffff" d="M510.944-148c-247.04 0-448 200.96-448 448s200.992 448 448 448c247.008 0 448-200.96 448-448S757.984-148 510.944-148zM510.944 684c-211.744 0-384-172.256-384-384 0-211.744 172.256-384 384-384 211.744 0 384 172.256 384 384C894.944 511.744 722.688 684 510.944 684zM512 38.656c-89.184 0-171.904 40.32-226.912 110.624-10.88 13.92-8.448 34.016 5.472 44.896 13.888 10.912 34.016 8.48 44.928-5.472 42.784-54.688 107.136-86.048 176.512-86.048 70.112 0 134.88 31.904 177.664 87.552 10.784 14.016 30.848 16.672 44.864 5.888 14.016-10.784 16.672-30.88 5.888-44.864C685.408 79.68 602.144 38.656 512 38.656zM368 296.8c-26.528 0-48 21.472-48 48l0 64c0 26.528 21.472 48 48 48s48-21.472 48-48l0-64C416 318.304 394.496 296.8 368 296.8zM656 296.8c-26.496 0-48 21.472-48 48l0 64c0 26.528 21.504 48 48 48s48-21.472 48-48l0-64C704 318.304 682.496 296.8 656 296.8z" transform="translate(0, 812) scale(1, -1)"/>
</svg>
