<?xml version="1.0" encoding="utf-8"?>
<!DOCTYPE svg PUBLIC "-//W3C//DTD SVG 1.1//EN" "http://www.w3.org/Graphics/SVG/1.1/DTD/svg11.dtd">
<svg version="1.1" id="图形" xmlns="http://www.w3.org/2000/svg" xmlns:xlink="http://www.w3.org/1999/xlink" x="0px" y="0px" width="1024px" height="1024px" viewBox="0 0 1024 1024" enable-background="new 0 0 1024 1024" xml:space="preserve">
  <path fill="#ffffff" d="M526.432-112.064c-20.96 0-44.16 12.576-68.96 37.344L274.752 108 192 108c-52.928 0-96 43.072-96 96l0 192c0 52.928 43.072 96 96 96l82.752 0 182.624 182.624c24.576 24.576 47.744 37.024 68.864 37.024C549.184 711.648 576 696 576 652l0-704C576-96.352 549.28-112.064 526.432-112.064zM192 428c-17.632 0-32-14.368-32-32l0-192c0-17.664 14.368-32 32-32l96 0c8.48 0 16.64-3.36 22.624-9.376l192.064-192.096c3.392-3.36 6.496-6.208 9.312-8.576L512 637.984c-2.784-2.336-5.952-5.184-9.376-8.608l-192-192C304.64 431.36 296.48 428 288 428L192 428zM687.584 81.632c-6.464 0-12.992 1.952-18.656 6.016-14.336 10.304-17.632 30.304-7.328 44.672l12.672 17.344C707.392 194.56 736 233.376 736 300c0 69.024-25.344 102.528-57.44 144.928-5.664 7.456-11.328 15.008-16.928 22.784-10.304 14.336-7.04 34.336 7.328 44.672 14.368 10.368 34.336 7.04 44.672-7.328 5.248-7.328 10.656-14.464 15.968-21.504C764.224 437.792 800 390.496 800 300c0-87.648-39.392-141.12-74.144-188.32l-12.224-16.736C707.36 86.24 697.568 81.632 687.584 81.632zM796.448-27.008c-7.488 0-15.04 2.624-21.088 7.936-13.28 11.648-14.624 31.872-2.976 45.152C836.608 99.328 896 183.136 896 300c0 116.864-59.392 200.704-123.616 273.888-11.648 13.312-10.304 33.504 2.976 45.184 13.216 11.648 33.44 10.336 45.152-2.944C889.472 537.44 960 438.4 960 300s-70.528-237.472-139.488-316.096C814.144-23.328 805.312-27.008 796.448-27.008z" transform="translate(0, 812) scale(1, -1)"/>
</svg>
