<?xml version="1.0" encoding="utf-8"?>
<!DOCTYPE svg PUBLIC "-//W3C//DTD SVG 1.1//EN" "http://www.w3.org/Graphics/SVG/1.1/DTD/svg11.dtd">
<svg version="1.1" id="图形" xmlns="http://www.w3.org/2000/svg" xmlns:xlink="http://www.w3.org/1999/xlink" x="0px" y="0px" width="1024px" height="1024px" viewBox="0 0 1024 1024" enable-background="new 0 0 1024 1024" xml:space="preserve">
  <path fill="#ffffff" d="M704 396c-52.928 0-96 43.072-96 96s43.072 96 96 96 96-43.072 96-96S756.928 396 704 396zM704 524c-17.664 0-32-14.368-32-32s14.336-32 32-32 32 14.368 32 32S721.664 524 704 524zM896 524M467.008-116c-27.04 0-57.76 6.752-83.008 32l-256 256c-46.752 46.752-37.76 122.24 0 160l288 288c12.512 12.512 36.16 14.496 48.672 1.984 12.736-12.736 17.664-31.68-4.32-53.664l-279.584-279.584c-28.992-28.992-25.76-47.744 1.248-74.752l248.992-248.992c22.24-22.24 41.984-24 67.744 1.76L832 300c25.504 25.504 32 46.656 32 96L864 524c0 110.048-17.952 128-128 128l-192 0c-17.664 0-32 14.336-32 32s14.336 32 32 32l192 0c145.344 0 192-46.656 192-192l0-128c0-73.728-8.256-104.256-64-160L544-84C526.752-101.248 499.488-116 467.008-116z" transform="translate(0, 812) scale(1, -1)"/>
</svg>
