<?xml version="1.0" encoding="utf-8"?>
<!DOCTYPE svg PUBLIC "-//W3C//DTD SVG 1.1//EN" "http://www.w3.org/Graphics/SVG/1.1/DTD/svg11.dtd">
<svg version="1.1" id="图形" xmlns="http://www.w3.org/2000/svg" xmlns:xlink="http://www.w3.org/1999/xlink" x="0px" y="0px" width="1024px" height="1024px" viewBox="0 0 1024 1024" enable-background="new 0 0 1024 1024" xml:space="preserve">
  <path fill="#ffffff" d="M223.968 171.52c0 35.328 28.672 63.968 64 63.968 35.36 0 64-28.64 64-63.968s-28.64-64-64-64C252.64 107.52 223.968 136.192 223.968 171.52M672.608 171.52c0 35.328 28.672 63.968 64 63.968s64-28.64 64-63.968-28.672-64-64-64S672.608 136.192 672.608 171.52M704.992 300l-384 0c-17.664 0-32 14.336-32 32s14.336 32 32 32l384 0c17.696 0 32-14.336 32-32S722.688 300 704.992 300zM896 359.808l0 5.472c0 2.112-0.224 4.224-0.64 6.304l-32 159.36c-0.544 2.624-1.376 5.152-2.528 7.552C839.264 583.424 783.264 620 736 620l-35.2 0c-0.224 2.112 0 4.192-0.672 6.304l-19.296 61.376C673.28 721.728 638.176 748 599.2 748l-174.016 0c-38.88 0-73.984-26.24-80.96-57.664l-19.968-63.744C323.584 624.512 323.808 622.112 323.584 620L288 620C242.528 620 183.712 593.696 162.016 535.904 161.44 534.272 160.96 532.64 160.64 530.944l-32-159.68C128.16 368.96 127.968 366.656 128 364.32l0.096-4.768C90.752 346.272 64 310.816 64 269.312l0-195.232C64 21.312 106.176-20 160-20l32 0 0-1.984c0.064-70.528 57.472-127.904 128-127.904s127.936 57.376 128 127.936L448-20l128 0 0-1.984c0.032-70.528 57.472-127.904 128-127.904s127.968 57.376 128 127.936L832-20l32 0c53.856 0 96 41.312 96 94.048l0 195.232C960 311.008 933.248 346.624 896 359.808zM405.952 673.696C406.624 676.672 414.592 684 425.184 684l174.016 0c10.624 0 18.56-7.296 19.904-12.896L635.008 620l-245.664 0L405.952 673.696zM896 74.048C896 56.928 882.24 44 864 44l-64 0c-17.696 0-32-14.304-32-32l0-33.92c-0.032-35.296-28.704-63.968-64-63.968s-63.968 28.672-64 63.936L640 12c0 17.696-14.304 32-32 32l-192 0c-17.664 0-32-14.304-32-32l0-33.92c-0.032-35.296-28.736-63.968-64-63.968s-63.968 28.672-64 63.936L256 12c0 17.696-14.336 32-32 32L160 44c-18.24 0-32 12.928-32 30.048l0 195.232c0 17.568 14.656 31.84 32.672 31.84 8.608 0 16.832 3.456 22.848 9.6s9.312 14.464 9.152 23.04l-0.608 28.32 30.752 153.408C234.016 542.112 263.776 556 288 556l448 0c21.472 0 53.28-20.736 65.536-42.08L832 362.112l0-28.8c0-17.664 14.304-32 32-32 17.664 0 32-14.368 32-32L896 74.048z" transform="translate(0, 812) scale(1, -1)"/>
</svg>
