<?xml version="1.0" encoding="utf-8"?>
<!DOCTYPE svg PUBLIC "-//W3C//DTD SVG 1.1//EN" "http://www.w3.org/Graphics/SVG/1.1/DTD/svg11.dtd">
<svg version="1.1" id="图形" xmlns="http://www.w3.org/2000/svg" xmlns:xlink="http://www.w3.org/1999/xlink" x="0px" y="0px" width="1024px" height="1024px" viewBox="0 0 1024 1024" enable-background="new 0 0 1024 1024" xml:space="preserve">
  <path fill="#ffffff" d="M512 748C264.96 748 64 547.04 64 300s200.96-448 448-448 448 200.96 448 448S759.04 748 512 748zM512-83.712c-211.584 0-383.712 172.16-383.712 383.712C128.288 511.584 300.416 683.712 512 683.712c211.552 0 383.712-172.128 383.712-383.712C895.712 88.448 723.552-83.712 512-83.712zM671.968 300 512 300 512 523.936c0 17.76-14.24 32.128-32 32.128s-32-14.4-32-32.128L448 268c0-17.76 14.272-32 32-32l191.968 0c17.76 0 32.128 14.24 32.128 32S689.728 300 671.968 300z" transform="translate(0, 812) scale(1, -1)"/>
</svg>
