<?xml version="1.0" encoding="utf-8"?>
<!DOCTYPE svg PUBLIC "-//W3C//DTD SVG 1.1//EN" "http://www.w3.org/Graphics/SVG/1.1/DTD/svg11.dtd">
<svg version="1.1" id="图形" xmlns="http://www.w3.org/2000/svg" xmlns:xlink="http://www.w3.org/1999/xlink" x="0px" y="0px" width="1024px" height="1024px" viewBox="0 0 1024 1024" enable-background="new 0 0 1024 1024" xml:space="preserve">
  <path fill="#ffffff" d="M576 652l-128 0c-17.664 0-32 14.336-32 32s14.336 32 32 32l128 0c17.696 0 32-14.336 32-32S593.696 652 576 652zM818.976 465.728l35.648 35.648c12.512 12.512 12.512 32.736 0 45.248s-32.736 12.512-45.248 0l-32.896-32.896C707.52 579.392 614.496 620 512 620 300.256 620 128 447.744 128 236c0-211.744 172.256-384 384-384 211.744 0 384 172.256 384 384C896 322.176 867.104 401.568 818.976 465.728zM544-82.368 544-52c0 17.696-14.336 32-32 32s-32-14.304-32-32l0-30.368C329.056-67.328 208.672 53.056 193.632 204L224 204c17.664 0 32 14.304 32 32s-14.336 32-32 32L193.632 268C208.672 418.944 329.056 539.328 480 554.368L480 524c0-17.664 14.336-32 32-32s32 14.336 32 32L544 554.368c150.944-15.072 271.328-135.424 286.368-286.368L800 268c-17.696 0-32-14.304-32-32s14.304-32 32-32l30.368 0C815.328 53.056 694.944-67.328 544-82.368zM652 388.992l-160-128c-13.824-11.072-16.032-31.2-4.992-44.992C493.344 208.096 502.624 204 512 204c7.008 0 14.08 2.272 19.968 7.008l160 128c13.792 11.04 16.032 31.168 4.992 44.96C685.952 397.792 665.856 400.064 652 388.992z" transform="translate(0, 812) scale(1, -1)"/>
</svg>
