<?xml version="1.0" encoding="utf-8"?>
<!DOCTYPE svg PUBLIC "-//W3C//DTD SVG 1.1//EN" "http://www.w3.org/Graphics/SVG/1.1/DTD/svg11.dtd">
<svg version="1.1" id="图形" xmlns="http://www.w3.org/2000/svg" xmlns:xlink="http://www.w3.org/1999/xlink" x="0px" y="0px" width="1024px" height="1024px" viewBox="0 0 1024 1024" enable-background="new 0 0 1024 1024" xml:space="preserve">
  <path fill="#ffffff" d="M511.936 106.272c-105.888 0-192 86.112-192 192L319.936 554.048c0 105.888 86.112 192 192 192s192-86.112 192-192l0-255.776C703.936 192.416 617.824 106.272 511.936 106.272zM511.936 682.048c-70.592 0-128-57.408-128-128l0-255.776c0-70.592 57.408-128 128-128 70.592 0 128 57.408 128 128L639.936 554.048C639.936 624.64 582.528 682.048 511.936 682.048zM864 332.224 864 460c0 17.664-14.304 32-32 32s-32-14.336-32-32l0-127.776c0-160.16-129.184-290.464-288-290.464-158.784 0-288 130.304-288 290.464L224 460c0 17.664-14.336 32-32 32s-32-14.336-32-32l0-127.776c0-184.608 140.864-336.48 320-352.832L480-84 288-84c-17.664 0-32-14.304-32-32s14.336-32 32-32l448 0c17.696 0 32 14.304 32 32s-14.304 32-32 32l-192 0 0 63.36C723.136-4.256 864 147.616 864 332.224z" transform="translate(0, 812) scale(1, -1)"/>
</svg>
