<?xml version="1.0" encoding="utf-8"?>
<!DOCTYPE svg PUBLIC "-//W3C//DTD SVG 1.1//EN" "http://www.w3.org/Graphics/SVG/1.1/DTD/svg11.dtd">
<svg version="1.1" id="图形" xmlns="http://www.w3.org/2000/svg" xmlns:xlink="http://www.w3.org/1999/xlink" x="0px" y="0px" width="1024px" height="1024px" viewBox="0 0 1024 1024" enable-background="new 0 0 1024 1024" xml:space="preserve">
  <path fill="#ffffff" d="M512 27.648m-48 0a1.5 1.5 0 1 0 96 0 1.5 1.5 0 1 0-96 0ZM512-148C264.96-148 64 52.96 64 300S264.96 748 512 748s448-200.96 448-448S759.04-148 512-148zM512 683.712C300.416 683.712 128.288 511.584 128.288 300c0-211.552 172.128-383.712 383.712-383.712 211.552 0 383.712 172.16 383.712 383.712C895.712 511.584 723.552 683.712 512 683.712zM512 138.304c-17.664 0-32 14.336-32 32l0 54.112c0 52.352 40 92.352 75.328 127.648C581.216 377.984 608 404.736 608 426.08c0 53.344-43.072 96.736-96 96.736-53.824 0-96-41.536-96-94.56 0-17.664-14.336-32-32-32s-32 14.336-32 32c0 87.424 71.776 158.56 160 158.56s160-72.096 160-160.736c0-47.904-36.32-84.192-71.424-119.296C572.736 279.008 544 250.272 544 224.448l0-54.112C544 152.672 529.664 138.304 512 138.304z" transform="translate(0, 812) scale(1, -1)"/>
</svg>
